<svg version="1.1" id="Layer_1" xmlns="http://www.w3.org/2000/svg" xmlns:xlink="http://www.w3.org/1999/xlink" x="0px" y="0px"
	 width="100%" viewBox="0 0 330 574" enable-background="new 0 0 330 574" xml:space="preserve">
<path fill="#FEFEFE00" opacity="1.000000" stroke="none" 
	d="
M181.767990,1.350739 
	C230.487778,1.000000 278.975616,1.029615 327.463196,0.925643 
	C330.340027,0.919474 331.090546,1.374649 331.088928,4.461625 
	C330.989838,193.413956 330.989075,382.366333 331.089600,571.318665 
	C331.091370,574.609375 330.141327,575.067566 327.183105,575.065430 
	C219.710266,574.987549 112.237320,574.984985 4.764484,575.075562 
	C1.679002,575.078186 0.917925,574.427124 0.919432,571.266235 
	C1.009444,382.480530 1.013965,193.694778 0.895169,4.909105 
	C0.892899,1.302657 1.858167,0.902989 5.089269,0.915347 
	C40.413330,1.050448 75.738106,1.000000 111.531342,1.000000 
	C112.671249,1.807718 113.015862,2.764233 112.814102,3.773802 
	C110.561150,15.047247 112.290749,26.157452 114.137146,37.264698 
	C114.498550,39.438831 113.966095,41.551788 113.791718,44.080772 
	C114.025322,46.536514 113.481064,48.507275 113.008156,50.836044 
	C112.509712,52.153301 111.925095,53.117554 112.781929,54.516006 
	C113.681610,57.910965 114.363976,61.007431 114.369247,64.193565 
	C114.382446,72.177475 116.890282,79.221260 122.360535,85.569000 
	C123.456772,87.975945 123.321045,90.285782 124.051247,92.781387 
	C124.326035,94.321289 124.742882,95.421425 125.542046,96.756950 
	C126.266235,98.640610 126.533478,100.284798 127.081665,102.223076 
	C127.386856,104.009346 127.986076,105.317680 128.705658,106.984978 
	C129.062149,108.089424 129.179565,108.859009 129.294083,110.039879 
	C129.350403,110.997185 129.371902,111.549667 129.430984,112.528519 
	C130.412018,125.815994 132.074493,138.642258 131.296844,151.995728 
	C131.109100,153.433304 130.780807,154.437439 130.938782,155.858704 
	C131.222748,157.911682 131.813721,159.550293 131.591827,161.636475 
	C130.192398,163.785675 130.263321,165.901718 130.101868,168.320450 
	C129.908539,169.588104 129.536240,170.436859 129.073578,171.612976 
	C128.443588,172.999924 128.439041,174.092728 128.872803,175.555786 
	C129.063431,176.921402 128.965729,177.900284 128.245361,179.116791 
	C125.895081,180.678284 123.540199,180.452805 121.291656,180.316483 
	C117.492615,180.086121 114.501999,180.792252 113.444641,185.059402 
	C113.172539,186.157501 112.104759,186.889465 111.111549,188.049911 
	C108.787880,190.787811 106.223267,192.680908 103.454666,194.184326 
	C94.297455,199.156967 90.335068,207.659760 88.425911,217.134750 
	C86.724533,225.578583 85.370453,234.135056 85.189323,242.824951 
	C85.091339,247.526276 83.269440,251.609055 79.057693,254.178467 
	C76.411171,255.792969 74.626335,258.263855 72.857681,260.601288 
	C67.857826,267.208984 61.893623,273.067108 57.376240,280.558716 
	C49.335907,291.100891 44.688641,302.086304 45.183346,315.487915 
	C45.530533,324.893066 45.377697,334.565155 44.085087,343.879669 
	C42.720901,353.709930 40.921059,363.578308 38.634129,373.296661 
	C38.330193,374.588226 37.649677,375.824921 37.751266,377.173676 
	C39.113464,395.259369 38.366600,413.451477 40.695892,431.496124 
	C42.314503,444.035278 43.725975,456.608276 45.666920,469.096741 
	C47.408764,480.304169 50.966637,491.124878 54.124683,501.992706 
	C57.352386,513.100281 59.019775,524.429260 60.431473,535.838440 
	C60.513054,536.497742 60.467972,537.175049 60.582294,537.831055 
	C60.843033,539.327148 61.059769,540.913635 63.055592,541.041748 
	C65.245461,541.182251 65.991592,539.622498 66.221954,537.902100 
	C67.031975,531.852783 65.594948,525.980713 64.643341,520.070618 
	C62.726894,508.168182 58.395313,496.920197 55.151115,485.384308 
	C50.930183,470.375305 49.052437,455.050568 47.608757,439.616608 
	C46.570267,428.514435 44.738956,417.510437 44.445866,406.309174 
	C43.952309,387.446442 44.693802,368.732361 48.983650,350.286652 
	C50.316059,344.557434 50.814762,338.770691 50.538689,332.917175 
	C50.129147,324.233490 51.171886,315.618378 51.666840,306.977875 
	C51.942612,302.163605 54.291401,298.060059 56.467587,293.943115 
	C59.036724,289.082764 61.931366,284.407501 65.382935,279.616943 
	C69.569031,274.874878 73.333504,270.260620 77.419113,266.011200 
	C80.970833,262.317047 85.812935,259.935455 89.844467,256.092346 
	C97.352203,253.028961 105.074142,252.113708 112.371490,249.702698 
	C114.947296,248.851654 116.568100,249.433807 116.977982,252.296494 
	C117.473572,255.757797 119.065292,258.799774 120.871429,262.129333 
	C121.365265,262.814728 121.540901,263.252380 121.608849,264.066101 
	C121.225128,265.554596 120.391060,266.687653 121.617142,268.199310 
	C122.485023,278.051392 127.440331,285.126160 134.341110,291.406097 
	C138.876282,295.533264 143.386322,299.598785 148.213226,303.411652 
	C152.758148,307.001770 155.360016,312.378632 156.646759,318.497162 
	C156.093658,319.749695 155.355347,320.444153 154.659027,321.623962 
	C151.056778,329.405182 152.383575,337.314789 152.864395,344.962524 
	C153.299545,351.883545 153.828705,358.910889 155.641068,365.708496 
	C156.107346,367.457336 155.585968,368.916199 154.078354,370.104950 
	C146.982849,375.699951 137.999283,373.162292 135.413895,364.728729 
	C134.751358,362.567596 133.215591,361.056427 132.021973,359.268219 
	C127.237213,352.100037 121.952415,345.200684 121.226982,336.045135 
	C120.977432,332.895721 121.607681,330.168060 122.578163,327.309357 
	C124.206718,322.512146 123.501106,321.285492 118.897316,319.301178 
	C113.628502,317.030212 109.593788,313.572144 108.220512,307.654999 
	C107.653442,305.211700 106.541862,302.951599 105.388023,300.730591 
	C103.538979,297.171295 101.649872,293.669312 102.390587,289.377289 
	C102.646080,287.896820 102.196732,286.297638 100.642426,285.530762 
	C98.879189,284.660736 97.800652,285.981018 96.862709,287.112274 
	C94.946724,289.423035 92.413315,290.530670 89.606850,291.215729 
	C87.546318,291.718689 86.423607,292.948364 86.669434,295.164429 
	C86.905090,297.288818 88.095512,298.638367 90.236252,298.604584 
	C98.005722,298.482056 101.260811,303.170746 103.336510,309.877563 
	C104.813873,314.651123 106.114914,319.470398 107.555199,324.250977 
	C108.622704,327.794220 107.311501,330.061951 103.802109,331.135498 
	C100.801643,332.053436 97.953766,333.343109 94.584602,332.421234 
	C91.636833,331.614624 91.582603,333.543488 92.415680,335.624023 
	C93.798035,339.076355 97.840866,340.592224 102.167046,339.343536 
	C109.564217,337.208435 110.196510,337.511566 111.907143,345.131836 
	C113.017876,350.079712 115.148285,354.571564 117.508949,358.982147 
	C119.221161,362.181152 121.410988,365.047516 120.137383,369.211792 
	C119.392212,371.648224 121.583221,371.674957 123.639336,371.905762 
	C134.428543,373.116913 142.050125,380.073944 140.011826,389.811279 
	C138.894150,395.150543 138.324875,400.662659 138.338806,406.175720 
	C138.342606,407.675415 138.272064,409.212067 138.900085,410.606537 
	C139.648132,412.267426 140.430939,414.428833 142.511093,414.263824 
	C145.003067,414.066193 144.374725,411.574799 144.686554,409.877106 
	C146.074860,402.318665 145.558685,394.610291 146.507202,386.996765 
	C147.002075,383.024445 148.296631,380.119141 152.091476,379.084839 
	C164.094238,375.813416 169.407043,366.953674 172.138321,355.785126 
	C173.345947,350.846893 175.791183,346.366699 178.736038,342.420074 
	C181.614288,338.562683 185.616318,335.131866 189.962967,333.300232 
	C194.725739,331.293243 199.731308,333.472534 204.217377,336.019257 
	C205.752579,336.890747 207.298706,338.250763 209.280441,337.497925 
	C210.237427,337.134399 210.057739,336.087585 209.834366,335.306122 
	C209.152542,332.920929 207.824478,330.973816 205.222565,330.578918 
	C199.473114,329.706299 193.830902,327.949860 187.922867,328.318665 
	C183.571136,328.590302 181.169937,326.628387 180.113480,322.350281 
	C178.744324,316.806000 179.580994,314.506653 184.755524,311.841736 
	C185.791473,311.308228 186.849762,310.814941 188.294632,310.229980 
	C189.170456,309.960846 189.684616,309.864777 190.597031,309.776550 
	C193.334915,309.698181 195.576645,310.261353 198.142731,311.052032 
	C200.444016,312.096741 201.726746,314.409637 204.733292,314.030762 
	C204.014603,311.536652 201.825439,310.656403 199.985626,309.069366 
	C198.150925,308.025330 196.446198,307.563629 194.453262,306.937683 
	C193.516235,306.653564 192.900772,306.438263 191.927963,306.322083 
	C190.292130,306.197571 188.991318,306.223846 187.400253,306.726685 
	C185.730347,307.214020 184.465088,307.777222 182.970688,308.729340 
	C177.544846,311.142273 173.571747,310.033508 169.959412,305.606140 
	C164.772385,299.248749 158.563828,294.420380 149.529892,295.662994 
	C148.352081,295.825012 147.090485,295.531891 146.232971,294.772003 
	C139.202087,288.541443 131.319199,282.992554 128.567032,273.241425 
	C127.836212,270.652039 127.370781,268.069458 128.501007,265.095642 
	C130.920761,263.122772 133.124054,261.529480 134.505432,258.976624 
	C135.564957,257.018585 137.225357,255.704193 140.048828,256.729004 
	C142.057434,260.063446 141.008224,263.559692 141.796539,267.158661 
	C141.823364,268.636444 141.746826,269.775726 143.003128,270.831116 
	C147.939484,278.787079 156.536758,280.136780 163.876358,283.124634 
	C170.708160,285.905762 173.289734,283.013824 172.456955,275.512726 
	C172.054764,271.889923 169.461899,268.217316 172.642761,264.326538 
	C173.585342,263.848236 174.320801,263.784119 174.830582,263.406128 
	C185.208618,255.711319 196.355484,257.534912 208.003510,260.766388 
	C212.485352,262.620911 216.471786,264.632751 220.657867,267.035828 
	C221.965881,268.170013 222.656876,269.461090 224.340714,270.147400 
	C227.972549,272.433563 230.200851,275.605255 232.858566,278.884155 
	C237.868576,284.435577 239.393555,291.274628 241.591019,297.655151 
	C245.821945,309.940033 250.804047,321.934967 255.504288,334.020813 
	C259.958374,345.473663 259.910370,356.762909 257.512970,368.346741 
	C255.416382,378.477295 251.892120,388.213501 248.397049,397.914246 
	C245.965668,404.662689 243.709091,411.443817 242.040619,418.400482 
	C240.896286,423.171753 238.206436,427.246552 236.615128,431.801636 
	C233.706116,440.128571 229.849426,448.140564 226.007339,455.974854 
	C219.834610,468.561401 209.771240,477.600616 195.499771,481.143463 
	C190.861465,482.294922 186.342484,483.668243 181.122681,482.717285 
	C184.032959,488.202179 189.055847,489.902252 195.044937,487.785553 
	C197.878281,486.784149 200.648666,485.746582 203.675171,485.415863 
	C206.955597,485.057373 208.873581,486.310211 209.174393,489.608551 
	C210.321899,502.191193 212.522476,514.690918 212.295380,527.380920 
	C212.243179,530.297913 212.432571,533.461243 209.319519,535.179932 
	C214.094254,540.511719 216.627319,548.219849 224.682266,551.428894 
	C224.827850,548.075684 224.109650,545.543030 222.364487,543.469604 
	C219.621796,540.211060 218.519028,536.437073 218.709778,532.344116 
	C219.372147,518.132996 217.172928,504.131012 215.816406,490.067078 
	C215.178848,483.457214 216.077698,477.731354 221.937988,473.183350 
	C226.135834,469.925537 228.685791,464.911377 230.889175,460.067963 
	C235.779572,449.318115 241.724548,438.978851 245.476212,427.795502 
	C251.552078,409.683868 258.642944,391.905701 263.569580,373.407410 
	C267.308929,359.367004 267.822449,345.684753 261.821014,331.903168 
	C257.112335,321.090363 253.179001,309.918121 249.223633,298.781677 
	C246.436981,290.935852 243.210052,283.267120 238.579620,275.856354 
	C240.043503,270.777771 238.828781,267.411072 235.119049,263.703979 
	C231.271744,259.859375 228.059540,254.895355 228.607544,248.645569 
	C228.796967,246.485016 228.338120,243.944550 225.369064,244.060242 
	C222.804901,244.160156 222.548843,246.491943 222.378418,248.511017 
	C222.196884,250.661896 222.269730,252.823456 222.573456,254.961288 
	C222.883865,257.146149 222.190277,258.866638 220.070969,260.338806 
	C217.550339,260.830627 215.967789,259.647064 215.444229,257.866577 
	C213.454803,251.101044 209.115295,244.990417 209.647797,237.121185 
	C209.674240,235.430878 209.391891,234.227509 208.387268,232.842957 
	C205.783325,227.914627 207.867142,223.158859 207.668961,218.101898 
	C207.623123,216.704987 207.690506,215.683029 207.234863,214.338623 
	C206.954803,213.221664 206.855682,212.460114 206.736664,211.310318 
	C206.653687,209.625092 206.595840,208.327255 205.978210,206.711411 
	C204.778290,202.245728 204.006958,198.148361 205.308212,193.580780 
	C206.294968,192.000488 208.349899,193.483124 208.977570,190.588837 
	C210.069443,185.554276 211.782852,181.068390 207.636978,176.609863 
	C206.345947,175.221481 207.134079,173.078812 207.383453,171.272079 
	C207.880966,167.667679 207.688126,164.445465 204.501511,161.787811 
	C201.886139,159.606537 201.937469,156.167770 201.655090,153.000137 
	C201.206207,147.964920 202.728638,143.077728 202.659866,138.062225 
	C202.561172,130.862595 201.806763,129.864212 194.262909,128.516266 
	C192.051590,127.723145 192.436188,126.348770 193.018524,124.578720 
	C195.564926,118.058296 194.834549,111.717834 194.048355,105.491333 
	C192.401672,92.449860 191.386154,79.386604 191.600647,66.242149 
	C191.715622,59.196201 193.067978,57.803520 200.106186,57.602676 
	C204.002640,57.491486 207.690796,56.673111 211.206406,55.081226 
	C213.541763,54.023750 214.422546,52.686367 211.710068,50.877186 
	C207.959595,48.375679 204.309097,46.162907 199.392410,46.318390 
	C192.096924,46.549095 189.353058,44.363148 186.906921,37.366238 
	C185.249603,32.625648 184.669052,27.627295 184.644958,22.647022 
	C184.615845,16.623489 184.570908,10.681070 181.826614,5.110504 
	C181.316360,4.074777 181.176102,2.876741 181.767990,1.350739 
z"/>
<path fill="#FCFCF4" opacity="1.000000" stroke="none" 
	d="
M181.531342,1.000000 
	C187.190460,10.463357 185.398666,21.086016 186.903580,31.156273 
	C187.328934,34.002567 188.013657,36.654209 189.110764,39.262665 
	C190.846390,43.389206 193.707718,46.095840 198.370850,44.927013 
	C205.173233,43.221977 209.492371,48.167080 214.635544,50.657127 
	C217.131607,51.865589 216.392441,54.388000 213.807327,55.561253 
	C209.567688,57.485413 205.295731,59.164562 200.443176,59.049427 
	C193.094315,58.875065 193.020264,59.098370 192.998383,66.643066 
	C192.959579,80.025139 194.032776,93.301132 195.702682,106.593399 
	C196.440262,112.464478 197.563141,118.847839 194.056610,124.862701 
	C191.049942,124.426674 190.998627,122.169510 190.738953,120.115814 
	C190.516159,118.353722 190.441162,116.573082 189.947418,114.434006 
	C188.729462,102.263840 186.634048,90.619957 185.331467,78.869781 
	C184.707016,73.236732 185.388092,67.632133 184.939819,61.970520 
	C184.316040,54.092518 182.255997,46.572506 181.031509,38.864105 
	C179.418884,28.712383 167.085373,21.608500 155.824112,23.614712 
	C152.412216,24.222546 150.761078,27.063477 149.705124,29.726448 
	C146.747757,37.184464 142.803101,40.155533 134.296371,36.921581 
	C127.969688,34.516399 121.460732,36.724903 116.804024,42.388641 
	C115.967667,43.405876 115.133102,44.480278 113.467911,45.037235 
	C112.103180,40.324753 111.759827,35.413593 111.491798,30.789677 
	C110.936066,21.202032 108.173256,11.372417 111.992355,1.404481 
	C135.020889,1.000000 158.041794,1.000000 181.531342,1.000000 
z"/>
<path fill="#525150" opacity="1.000000" stroke="none" 
	d="
M190.763306,113.753693 
	C191.776062,117.500710 192.518356,121.002129 193.486710,124.787125 
	C193.775818,125.797989 193.838867,126.525284 194.058197,127.399681 
	C197.839600,134.643021 198.103912,142.504990 199.399567,150.138519 
	C201.004410,159.593643 201.968552,169.165955 204.496307,178.454529 
	C205.724823,182.968887 205.502335,187.634979 205.858765,192.644180 
	C205.443192,197.503082 206.392761,201.834549 206.891907,206.628296 
	C207.042511,208.162079 206.889313,209.311783 207.412506,210.702393 
	C207.722809,211.756943 207.889526,212.505768 207.998779,213.638489 
	C207.986237,214.819794 207.985596,215.619919 208.134598,216.709412 
	C208.688950,221.914795 209.192627,226.824936 209.650085,232.111893 
	C209.629456,232.691010 209.655060,232.893326 209.493225,233.333405 
	C209.169815,233.717712 209.033859,233.864258 208.702332,234.215454 
	C208.234512,234.789566 207.830994,235.110870 208.245544,235.551041 
	C208.439835,235.440948 208.913864,235.361343 209.163574,235.390106 
	C209.569809,235.488693 209.726303,235.558517 210.040649,235.831207 
	C211.268723,242.503143 213.485977,248.652267 215.265030,254.927933 
	C215.989090,257.482056 217.251129,258.812836 219.605148,260.055084 
	C227.590912,262.854584 233.715790,267.395386 237.579620,275.012085 
	C236.518494,277.538330 235.901596,280.151794 232.240082,279.256714 
	C229.388336,276.506134 226.871002,273.977417 224.177582,271.158051 
	C223.050125,270.069489 222.207581,269.149780 220.943939,268.255066 
	C217.016846,266.149261 213.370911,264.175110 209.405853,262.083008 
	C201.857315,257.608063 194.824417,252.887390 186.696213,250.227356 
	C184.966125,249.661163 183.298416,248.918976 181.499832,248.543198 
	C178.803024,247.979736 177.543274,248.709763 176.535782,251.658112 
	C175.057114,255.985275 173.822052,260.342743 172.421677,264.631744 
	C171.179703,268.924225 173.732315,272.895386 173.774216,277.187408 
	C173.797928,279.614227 174.971573,283.055115 172.587234,284.126007 
	C169.613724,285.461548 165.780792,286.223083 162.612244,284.089813 
	C160.224518,282.482208 157.792114,281.175171 155.002411,280.591827 
	C149.443817,279.429443 145.445801,276.231812 142.443649,271.133240 
	C141.559555,270.690125 141.288300,270.181885 141.170135,269.262573 
	C139.780243,265.399292 139.572769,261.684326 139.649185,257.485657 
	C138.678009,255.612488 138.692032,253.934891 138.171631,252.065872 
	C137.578918,249.818176 136.581741,249.673157 134.994919,251.203857 
	C134.428192,251.992691 134.093521,252.553696 133.672104,253.462219 
	C131.439484,257.042572 131.896622,261.212067 129.533081,264.746033 
	C128.064117,270.941895 129.519241,276.284180 133.301178,280.790527 
	C136.804413,284.964722 140.726730,288.794556 144.568054,292.673492 
	C145.840073,293.957977 147.479858,295.287415 149.386887,294.827759 
	C159.339539,292.428894 165.348282,298.666412 170.804749,305.073608 
	C174.178864,309.035645 177.216705,310.448059 182.154190,307.774933 
	C183.864212,307.183533 185.849457,308.213654 186.636383,305.806702 
	C188.062897,304.129395 189.658218,304.556885 191.609955,304.963165 
	C192.429001,305.490143 192.900955,305.821869 193.819168,305.726746 
	C196.088608,305.746796 197.857193,306.462158 199.736664,307.803467 
	C201.428802,309.794617 202.044174,311.394745 198.918427,312.374908 
	C196.255722,311.678589 193.983887,311.098877 191.378616,310.298462 
	C190.478058,310.037018 189.934586,310.109650 189.202881,310.561829 
	C188.299713,311.192169 187.689865,311.796265 186.957397,312.136353 
	C179.153488,315.759949 178.491104,317.546051 181.883911,325.562317 
	C182.706253,327.505280 184.199158,327.895325 185.939209,327.497772 
	C191.695084,326.182739 197.021271,328.464752 202.540833,329.052124 
	C207.185867,329.546448 209.754654,330.822357 211.045212,335.162506 
	C211.431137,336.460358 212.280930,337.624207 211.034164,338.784698 
	C209.824478,339.910675 208.538300,339.196106 207.308395,338.711212 
	C203.934662,337.381195 201.176315,334.478485 197.330276,334.429932 
	C193.082901,334.376312 187.645370,330.979034 185.898819,338.623108 
	C185.442719,340.619293 181.559540,338.254608 180.342758,341.286926 
	C178.574615,345.693268 175.556824,349.490021 173.949158,354.060730 
	C171.871536,359.967621 170.739731,366.300598 166.361115,371.261108 
	C163.095139,374.961090 159.442551,377.756592 154.574036,379.098816 
	C149.810135,380.412201 146.808792,382.739136 147.105148,388.873199 
	C147.479767,396.627472 146.262695,404.462494 145.657730,412.256897 
	C145.544983,413.709534 145.454849,415.421082 143.798874,416.068024 
	C141.870209,416.821411 140.808395,415.365234 139.610062,414.162170 
	C134.829269,409.362427 137.671799,403.673584 138.104706,398.490784 
	C138.434113,394.547058 138.765305,390.557068 139.092316,386.600403 
	C139.479919,381.910095 137.739471,378.088531 132.909866,376.373749 
	C130.977203,375.687500 129.393616,374.528717 127.953804,373.110321 
	C126.791977,371.965729 125.672066,371.198212 124.287636,372.987457 
	C122.952461,374.713043 121.343063,374.317596 120.017799,372.940704 
	C118.704056,371.575775 117.444046,369.672058 119.106064,368.129639 
	C121.411629,365.990021 119.777290,364.631073 118.754112,363.024689 
	C114.979630,357.098724 111.851059,350.919281 110.578606,343.904938 
	C109.590576,338.458557 107.951340,337.730255 102.697609,340.088593 
	C97.102646,342.600098 91.172707,339.358948 90.507103,333.475037 
	C90.367668,332.242462 90.460388,331.051727 91.345451,330.257141 
	C92.504814,329.216339 93.428963,330.340637 94.418144,330.906647 
	C96.413239,332.048248 105.603073,330.360260 106.819000,328.700592 
	C107.635475,327.586121 107.167107,326.419739 106.832428,325.358795 
	C104.884880,319.184875 103.637924,312.803345 101.056938,306.812317 
	C98.536301,300.961334 96.425987,299.158539 90.090256,299.796356 
	C85.458710,300.262604 85.953003,296.901520 85.244606,294.455109 
	C84.349861,291.365173 86.331535,290.105072 88.986153,289.956390 
	C92.557396,289.756317 95.413208,288.798187 97.014381,285.204041 
	C97.812508,283.412506 99.547264,283.172852 101.275360,284.125732 
	C103.604729,285.410126 104.999672,287.745728 103.799637,289.923157 
	C102.244247,292.745422 103.514023,294.410431 104.683693,296.638000 
	C106.375359,299.859772 108.030449,303.205658 108.967995,306.695557 
	C110.662834,313.004395 114.216759,317.039215 120.660316,318.576416 
	C124.848320,319.575500 125.880722,322.465485 124.237831,326.202484 
	C120.719612,334.205200 121.971008,341.558533 126.594887,348.734161 
	C129.356415,353.019714 130.833817,358.137054 135.283325,361.315002 
	C136.080429,361.884369 136.410492,363.346008 136.621017,364.459076 
	C137.867218,371.048248 142.598511,373.337921 149.030991,371.213165 
	C153.971268,369.581299 155.265839,367.835419 153.961731,362.175232 
	C151.965836,353.512482 150.925690,344.453400 151.809326,335.423462 
	C152.263992,330.777344 149.631561,325.738403 153.758041,321.260712 
	C156.059753,319.743652 156.867599,321.226318 157.793991,323.059204 
	C157.756302,325.381866 158.790955,326.892365 159.818909,328.816956 
	C159.952011,329.709229 159.979904,330.222565 160.002975,331.116211 
	C159.173798,339.250275 158.829971,346.982330 161.332581,354.587830 
	C161.865479,347.211761 160.242844,339.907593 160.247375,332.192566 
	C159.934631,330.660431 160.122879,329.440948 159.637604,327.965637 
	C158.930420,326.911957 158.417816,326.150177 158.127319,324.911621 
	C158.304062,322.727142 156.864014,321.375214 156.683731,319.360229 
	C153.072754,311.715210 149.506393,304.823029 142.097168,299.692444 
	C134.532471,294.454224 127.404366,287.762695 123.291344,278.926788 
	C121.818733,275.763214 120.832619,272.404419 120.564751,268.450989 
	C120.185188,267.276581 120.075012,266.504089 120.416588,265.337708 
	C120.622726,264.536316 120.689445,264.105652 120.682503,263.353577 
	C119.702835,261.510956 119.452492,259.741669 120.095985,258.239166 
	C121.846573,254.151703 120.022346,251.740479 116.790359,249.577438 
	C114.190918,247.837708 112.024033,245.471802 109.046654,244.260376 
	C106.217712,243.109344 103.070122,242.741562 101.346245,245.421097 
	C98.415863,249.975967 93.176239,252.047470 90.015594,256.707977 
	C82.087822,263.860809 73.716179,270.093414 67.453888,278.899292 
	C64.899994,280.120422 62.833473,281.677979 59.831810,281.831116 
	C58.941860,281.694458 58.453594,281.534424 57.643532,281.132507 
	C57.105114,280.780182 56.906731,280.614044 56.532539,280.101868 
	C60.338455,272.357117 66.505753,266.655457 71.750862,260.256195 
	C74.168076,257.307129 76.223862,253.927704 80.221962,252.151016 
	C82.748764,251.028137 83.906662,247.748611 84.018044,244.459961 
	C84.327965,235.309219 85.574715,226.259933 87.297371,217.259277 
	C89.365356,206.454269 94.160568,197.686722 104.363037,192.500122 
	C106.258659,191.536469 107.847633,189.969604 109.810059,188.445068 
	C113.121346,185.619049 116.655548,185.903778 120.278961,186.524429 
	C126.244179,187.546219 126.251114,187.518433 126.643112,181.589157 
	C126.686623,180.931046 126.784103,180.287781 127.098396,179.291245 
	C127.491730,177.884781 127.786140,176.850952 128.057770,175.412933 
	C128.027634,174.148590 127.992294,173.284943 128.494614,172.182068 
	C128.884445,171.078140 129.127731,170.261658 129.603424,169.225876 
	C130.836273,166.728592 129.599350,164.213104 130.538818,161.609253 
	C129.450150,159.848541 130.045822,158.210419 129.997162,156.316818 
	C130.046310,155.535202 130.026245,155.097656 130.010773,154.331238 
	C130.098801,144.567093 130.076843,135.141937 128.965485,125.743210 
	C128.461044,121.477173 128.328598,117.167145 128.099274,112.438736 
	C128.592880,111.483810 128.701035,110.933044 128.093765,110.168030 
	C127.640137,109.313057 127.445686,108.622620 127.306038,107.572128 
	C128.263611,105.793472 127.873299,104.595215 126.509430,103.258163 
	C125.815765,101.318970 125.345222,99.646423 124.895103,97.599106 
	C124.518478,96.324173 124.154732,95.409683 123.610008,94.252823 
	C122.664070,91.708084 121.855850,89.424355 121.054977,86.734512 
	C122.044304,83.032272 122.303719,79.336731 126.334450,77.543770 
	C127.877655,78.113289 128.567764,79.122452 128.830322,80.239906 
	C130.508255,87.381187 134.186951,93.835342 135.901047,101.318550 
	C135.839615,102.761154 135.716644,103.856796 136.641357,105.081108 
	C137.828003,107.867805 141.158478,109.052483 140.719299,112.681458 
	C136.685013,114.399590 136.799850,117.726158 136.268723,121.120926 
	C135.561218,125.643211 136.013687,130.418381 133.559540,134.735550 
	C137.066238,133.735779 137.166428,133.728195 136.929901,130.601181 
	C136.737137,128.052628 137.267059,125.641411 137.839676,123.215714 
	C138.254272,121.459419 139.018280,120.065651 141.520813,120.460892 
	C142.212784,120.892479 142.474030,121.267250 142.661789,122.064362 
	C142.481308,123.802689 142.749115,125.068726 143.877228,126.473534 
	C147.479416,140.823257 151.669525,154.674927 154.162094,168.921906 
	C155.395279,175.970551 156.559662,183.015533 159.130142,189.730682 
	C160.350555,192.918945 160.372482,196.236816 160.381577,199.564957 
	C160.387970,201.905334 161.104065,203.647675 163.482101,204.698746 
	C174.460236,209.551010 180.234787,218.857529 184.384872,229.499359 
	C184.686600,230.273102 184.958679,231.070694 185.098938,231.886719 
	C186.155182,238.030853 188.349213,243.036102 195.701584,243.555206 
	C197.621475,243.690735 199.111908,245.586563 201.627426,245.568619 
	C199.592117,226.241653 198.535660,206.917511 194.293762,187.621368 
	C194.178970,186.030045 195.576721,185.030609 194.709320,183.418732 
	C194.419739,182.760971 194.320007,182.361710 194.235519,181.639603 
	C194.225510,180.197693 193.617401,179.287201 193.024445,177.985626 
	C190.043350,165.774139 187.835083,153.781403 186.155823,141.340179 
	C185.839096,139.975937 188.588745,139.546921 186.473969,138.019623 
	C185.044342,136.136963 184.770401,134.250763 184.810516,131.927246 
	C184.965912,130.754730 185.123245,129.926270 185.781799,129.366760 
	C186.592728,128.677780 187.085831,129.047348 187.333755,129.955963 
	C187.883362,129.636551 188.174896,128.669861 189.086060,129.257355 
	C189.384644,128.349609 188.547791,128.305664 188.096939,128.007660 
	C187.542099,127.640907 186.621613,126.939537 186.842957,126.666328 
	C190.756897,121.834839 183.081085,119.686745 184.341583,115.176346 
	C184.438553,114.589066 184.515121,114.360123 184.824158,113.850456 
	C186.857590,112.572006 188.663071,111.968697 190.763306,113.753693 
z"/>
<path fill="#555454" opacity="1.000000" stroke="none" 
	d="
M231.986603,279.376282 
	C235.041046,279.574860 235.323715,276.510803 237.238907,274.900238 
	C237.799591,274.706482 238.021652,274.693970 238.500580,274.894287 
	C246.520096,284.988617 249.452164,297.101929 254.020401,308.439392 
	C257.434204,316.911713 259.853577,325.804199 263.556976,334.135681 
	C268.626068,345.539490 268.757294,356.900299 265.711792,368.725494 
	C262.773071,380.136108 259.752441,391.474365 255.167267,402.385162 
	C251.117325,412.022308 250.011520,422.710815 245.103958,432.066864 
	C238.177048,445.272766 233.906723,459.833618 224.777237,471.912506 
	C224.276337,472.575195 223.854935,473.443420 223.177261,473.804810 
	C215.293594,478.008789 217.086823,485.211945 217.206619,492.075989 
	C217.383850,502.230774 220.328293,512.118469 219.875824,522.315430 
	C219.707275,526.114136 219.589767,529.916626 219.539810,533.718567 
	C219.504272,536.422668 220.161087,539.107056 221.929596,541.085266 
	C224.986404,544.504333 226.448761,548.291626 225.803894,553.150391 
	C218.650345,551.476379 215.462662,545.353394 211.688354,540.050232 
	C210.864166,538.892151 211.515701,536.716248 209.192657,536.421265 
	C209.074371,536.406250 206.813156,534.683105 209.731827,534.796997 
	C211.113861,534.850830 210.585587,533.238525 210.669449,532.378052 
	C211.332825,525.572144 211.214188,518.744812 210.627533,511.953583 
	C209.969452,504.335510 208.886917,496.754913 208.142380,489.143005 
	C207.885910,486.521027 206.817871,486.144684 204.284561,486.179504 
	C199.347290,486.247314 195.501129,489.924927 190.391907,489.619629 
	C187.765396,489.462738 185.461716,489.083344 183.378265,487.729675 
	C181.340424,486.405670 178.287582,484.839783 179.258347,482.202972 
	C180.236877,479.545044 183.038437,482.242676 184.924194,481.953247 
	C192.506958,480.789337 200.343216,480.368683 206.778900,475.301178 
	C213.286484,470.177185 220.667450,465.875061 224.028778,457.740234 
	C230.985519,440.904083 240.012070,424.904449 244.051987,406.879364 
	C245.421616,400.768372 248.140732,394.964050 250.334625,389.085236 
	C254.615814,377.613251 256.956116,365.780548 258.534760,353.769806 
	C259.571625,345.881195 255.933151,338.774475 253.343567,331.623505 
	C247.912903,316.627014 241.760864,301.898743 236.677124,286.765198 
	C235.812195,284.190430 233.637283,282.055695 231.986603,279.376282 
z"/>
<path fill="#545354" opacity="1.000000" stroke="none" 
	d="
M185.343140,114.000153 
	C185.924011,116.496895 185.439224,119.461922 188.497025,121.175713 
	C191.879715,123.071579 191.921783,125.017845 187.602203,125.400131 
	C187.443298,126.512520 187.987930,126.817726 188.634781,127.060997 
	C190.315262,127.692970 189.919632,129.157715 189.976105,130.439377 
	C188.922089,129.499435 187.707870,131.386322 186.473221,130.152130 
	C185.983154,129.662231 185.865341,130.934753 185.492966,131.717957 
	C184.330887,131.796326 183.568802,131.144928 183.124176,130.221329 
	C176.728561,116.935707 168.073746,104.810623 163.116638,90.770493 
	C161.084167,85.013870 156.927689,80.169243 155.446045,73.747116 
	C155.836655,72.205513 156.771317,71.361588 157.491638,69.967598 
	C158.782593,68.415543 159.335144,66.576057 161.698563,66.323151 
	C164.681564,67.436203 165.305130,69.812744 165.881439,72.574387 
	C165.883194,73.780525 165.906906,74.631638 166.886963,75.483292 
	C170.006195,79.437050 171.047913,84.029205 172.882904,88.232109 
	C174.793976,92.609314 177.124954,96.779366 178.975067,101.461235 
	C179.045700,102.122169 179.196899,102.305420 179.471252,102.276138 
	C179.236023,102.074791 179.102310,101.812698 179.031738,101.153824 
	C177.149353,87.000183 174.906693,73.225853 174.529953,59.249996 
	C174.426590,55.415550 173.780182,51.653534 172.756195,47.572166 
	C171.846558,45.335655 171.943924,43.306107 171.590393,41.355675 
	C170.850479,37.273773 167.016129,33.440971 163.000656,32.628410 
	C161.672897,32.359730 160.262100,32.152168 159.126831,32.934845 
	C155.995667,35.093521 154.681274,38.585670 152.843475,41.721725 
	C150.733429,45.322334 150.806610,48.565418 153.557892,51.731815 
	C153.878738,52.101074 154.054306,52.591316 154.395325,53.361214 
	C154.604309,57.500713 152.946655,58.536690 149.768494,56.407898 
	C148.210617,55.364403 146.894516,55.025089 145.059387,56.367069 
	C144.304840,56.680843 143.843399,56.708862 143.040802,56.532227 
	C139.828156,54.537750 138.693802,51.223614 136.457748,48.803806 
	C133.701035,45.820549 130.311905,45.548927 126.910446,46.911877 
	C123.561981,48.253590 120.769218,50.402416 121.906265,55.139977 
	C123.051437,58.834625 123.213516,62.340515 123.913757,66.126312 
	C124.284088,68.398560 124.533813,70.319885 125.571602,72.409256 
	C126.221680,74.348747 127.202873,75.811302 126.893478,77.791641 
	C123.625038,79.851921 123.763725,83.547295 121.449898,86.171608 
	C113.037628,77.266754 114.209641,65.545906 111.802216,54.414047 
	C111.442375,53.579941 111.361221,53.123886 111.522644,52.317913 
	C112.111137,49.926506 112.568558,47.863613 113.044487,45.409065 
	C118.596954,36.591942 126.231285,33.312843 136.134613,35.612606 
	C137.099655,35.836708 138.335754,35.821880 138.963104,36.422436 
	C143.302200,40.576050 144.575089,37.550819 145.883041,33.750854 
	C149.738831,22.548828 159.035004,18.826025 169.769272,24.021910 
	C176.936295,27.491068 180.947647,32.761093 182.977753,40.856613 
	C186.874603,56.396057 185.325684,72.300537 187.654037,87.888214 
	C188.907806,96.281837 189.939545,104.708618 191.052628,113.559860 
	C189.260529,113.449722 187.484879,113.667336 185.343140,114.000153 
z"/>
<path fill="#565656" opacity="1.000000" stroke="none" 
	d="
M56.130367,279.969238 
	C56.626503,279.801270 56.896278,279.846680 57.572914,279.945557 
	C58.202930,280.277039 58.381161,280.580841 58.765015,280.963501 
	C61.790230,281.527649 63.533436,278.259857 66.767899,279.047363 
	C62.812130,285.140381 58.856083,291.480255 55.560238,298.175781 
	C51.386368,306.655029 51.744915,316.070587 51.632385,325.069336 
	C51.490475,336.417328 51.462799,347.539520 48.184868,358.601959 
	C46.017628,365.916046 46.774639,373.788422 46.105240,381.399567 
	C44.215248,402.888733 47.335716,424.047455 49.390644,445.350616 
	C51.045944,462.510925 54.319798,479.193939 59.340157,495.539703 
	C62.767727,506.699554 65.676712,517.905457 67.274422,529.452271 
	C67.727089,532.723816 68.181831,535.944214 67.436562,539.342163 
	C66.778564,542.342224 65.256035,543.107422 62.577999,542.908264 
	C59.719540,542.695740 59.239582,540.970154 59.171383,538.460693 
	C58.839550,526.249695 56.574760,514.331116 53.010956,502.685425 
	C43.713020,472.301880 39.518322,441.106873 37.958668,409.487000 
	C37.526405,400.723389 37.670734,391.894867 37.293491,383.186279 
	C36.791073,371.588226 40.479874,360.996735 42.104382,349.941559 
	C42.561970,346.827545 43.859524,343.744934 43.471924,340.599884 
	C42.341164,331.424713 44.224384,322.327881 43.933563,313.208405 
	C43.576954,302.025909 47.395905,292.404114 53.744835,283.525482 
	C54.515545,282.447662 55.186703,281.298645 56.130367,279.969238 
z"/>
<path fill="#545454" opacity="1.000000" stroke="none" 
	d="
M105.255173,492.206451 
	C102.049828,491.713013 99.264717,491.251282 96.472054,490.840942 
	C95.019073,490.627411 93.946342,490.084747 93.773041,488.441315 
	C93.561119,486.431702 95.482834,486.143372 96.396034,486.138153 
	C101.285004,486.110321 105.373840,483.302399 110.138885,482.624084 
	C117.045380,481.640900 121.214226,483.523773 122.495163,490.486603 
	C123.063087,493.573639 124.165764,493.859589 126.645348,493.154572 
	C130.146622,492.159119 133.698517,491.340027 137.193298,490.323578 
	C146.790314,487.532349 155.928696,489.808807 164.961166,492.858887 
	C167.850296,493.834473 170.010056,494.583984 171.705276,490.828156 
	C173.250488,487.404602 175.762695,488.408661 177.211670,491.153412 
	C178.911667,494.373627 178.055725,497.715820 176.252258,500.625519 
	C174.543777,503.381897 171.847961,502.958252 169.117401,502.206635 
	C163.698959,500.715149 158.527863,498.534576 152.844650,497.724670 
	C145.962234,496.743958 139.717667,498.335693 133.381958,500.411133 
	C127.063019,502.481079 120.572853,502.214874 114.158218,501.079132 
	C111.432571,500.596558 109.515472,498.095154 110.129272,495.562897 
	C111.452843,490.102448 108.317863,491.755341 105.255173,492.206451 
z"/>
<path fill="#FCFCF4" opacity="1.000000" stroke="none" 
	d="
M206.075531,193.071014 
	C203.277908,179.615692 200.791473,166.174927 198.345901,152.726730 
	C196.872528,144.624725 195.462723,136.511169 194.119446,127.974792 
	C200.544724,126.851250 203.732361,129.703690 204.071838,135.614487 
	C204.398361,141.300308 202.610443,146.791519 203.001801,152.440826 
	C203.272827,156.353470 203.326874,159.931091 207.501785,162.623886 
	C210.699417,164.686356 209.112854,169.097672 208.577118,172.387543 
	C208.191116,174.758011 207.971909,176.222260 210.291306,177.818054 
	C213.187134,179.810394 212.592300,185.770615 209.639175,191.428162 
	C208.854996,192.930481 208.798080,195.053391 206.075531,193.071014 
z"/>
<path fill="#F7F6F1" opacity="1.000000" stroke="none" 
	d="
M172.531158,264.628418 
	C170.968079,261.350037 172.309540,258.639557 173.574356,255.901291 
	C174.337524,254.249069 175.787674,252.473160 175.607956,250.904160 
	C174.897751,244.704330 179.373016,246.233932 181.816406,247.157425 
	C191.366547,250.766953 201.451355,253.537827 208.959732,261.649597 
	C203.685455,261.970245 198.536835,260.167450 193.205887,259.516449 
	C187.350937,258.801422 182.790619,260.136230 178.406677,263.231537 
	C176.642487,264.477142 175.082428,265.287720 172.531158,264.628418 
z"/>
<path fill="#F4F4ED" opacity="1.000000" stroke="none" 
	d="
M239.072128,274.891449 
	C238.462128,275.119232 238.203415,275.027740 237.779419,274.775879 
	C232.606827,269.092224 226.992889,264.256317 220.152527,260.421356 
	C222.416748,256.721741 220.631424,252.892990 220.969391,249.268539 
	C221.139191,247.447540 220.874680,245.532272 222.118362,244.024170 
	C223.340942,242.541595 224.857834,241.653275 226.926102,242.487915 
	C228.999313,243.324570 230.224915,244.645279 229.991272,247.019531 
	C229.197418,255.086578 233.211502,260.819733 239.051758,265.672791 
	C242.498199,268.536621 240.685928,271.621704 239.072128,274.891449 
z"/>
<path fill="#F4F4ED" opacity="1.000000" stroke="none" 
	d="
M90.126884,256.905914 
	C91.580734,254.057327 91.868851,249.880539 96.568008,249.473404 
	C97.412346,249.400253 98.153534,247.540771 98.848778,246.446609 
	C101.709709,241.944000 104.515961,240.914719 109.268692,242.879654 
	C114.091614,244.873611 117.417114,248.985550 121.615524,251.879333 
	C122.992401,252.828369 122.617516,254.436325 122.165802,255.976837 
	C121.568085,258.015259 121.293564,260.148468 120.744492,262.636536 
	C117.639435,260.393433 115.845322,257.112213 115.893402,253.124268 
	C115.928276,250.231918 115.122871,249.129700 112.551781,251.012344 
	C110.264198,252.687408 107.803398,253.166397 105.085335,252.997711 
	C101.815819,252.794815 99.057518,254.128311 96.256355,255.666046 
	C94.589645,256.580994 92.619209,257.290680 90.126884,256.905914 
z"/>
<path fill="#FCFCF4" opacity="1.000000" stroke="none" 
	d="
M217.017944,61.438232 
	C217.767563,55.121407 222.337311,57.436581 225.579971,57.021263 
	C229.165405,56.562046 231.101379,59.069698 232.598328,61.635056 
	C233.688995,63.504162 231.723068,64.523117 230.365402,64.651802 
	C225.345749,65.127586 224.645599,68.316711 224.984024,72.394302 
	C225.079895,73.549316 224.988129,74.719223 224.998688,75.882156 
	C225.020035,78.234863 224.434692,80.557816 221.740601,80.558090 
	C219.037247,80.558357 217.062714,78.910156 217.031631,75.849854 
	C216.984390,71.198204 217.010483,66.545815 217.017944,61.438232 
z"/>
<path fill="#F1F1E8" opacity="1.000000" stroke="none" 
	d="
M126.787598,178.949921 
	C127.351662,179.391235 127.582230,179.853348 127.649010,180.338013 
	C128.828415,188.897491 128.333389,189.523590 120.199989,187.856094 
	C116.966232,187.193115 113.953369,187.371933 110.452179,188.178711 
	C110.860741,185.657593 113.478149,184.044067 113.377289,180.877625 
	C113.323921,179.202255 115.389908,179.020752 116.939285,179.018250 
	C120.085495,179.013153 123.231674,178.994354 126.787598,178.949921 
z"/>
<path fill="#F1F1E8" opacity="1.000000" stroke="none" 
	d="
M129.680008,265.022949 
	C129.501526,260.931824 130.599319,257.078369 132.795471,253.231842 
	C134.076660,251.973450 135.525467,251.632645 136.942505,250.588730 
	C137.754974,250.353058 138.228699,250.387253 139.014252,250.703323 
	C140.081390,252.634613 139.804871,254.463745 139.619751,256.666992 
	C137.476318,256.850006 135.728363,257.840302 135.392609,259.645264 
	C134.795532,262.855164 132.397720,263.810730 129.680008,265.022949 
z"/>
<path fill="#626262" opacity="1.000000" stroke="none" 
	d="
M198.737122,312.533447 
	C200.368774,311.648468 200.867126,310.466339 200.005173,308.393066 
	C200.288300,308.144562 200.671478,308.130981 200.906677,308.310852 
	C203.209259,310.071747 207.378159,312.240234 205.940933,314.654358 
	C204.196457,317.584534 201.437057,313.340424 198.737122,312.533447 
z"/>
<path fill="#545354" opacity="1.000000" stroke="none" 
	d="
M130.229156,161.558380 
	C130.889832,163.769058 132.876541,166.276260 130.109726,168.862671 
	C129.361328,166.605545 129.450790,164.214844 130.229156,161.558380 
z"/>
<path fill="#B5B4B2" opacity="1.000000" stroke="none" 
	d="
M157.399979,324.249695 
	C156.728531,322.707916 156.582855,321.196136 154.351791,321.050842 
	C154.152420,319.816650 154.979111,319.354614 156.399826,319.086975 
	C157.548569,320.477478 158.320496,321.906403 159.066040,323.655579 
	C158.668549,324.335602 158.225357,324.495239 157.399979,324.249695 
z"/>
<path fill="#545354" opacity="1.000000" stroke="none" 
	d="
M126.258713,103.307404 
	C129.379318,103.141510 129.645676,104.585960 127.713043,107.044098 
	C126.984261,106.015800 126.607689,104.819550 126.258713,103.307404 
z"/>
<path fill="#626262" opacity="1.000000" stroke="none" 
	d="
M186.436554,305.673889 
	C187.999542,309.913727 184.995621,308.101471 182.850449,307.865967 
	C183.729919,307.092407 184.924698,306.452118 186.436554,305.673889 
z"/>
<path fill="#545354" opacity="1.000000" stroke="none" 
	d="
M207.612656,210.665131 
	C205.520966,210.375626 205.860809,208.960052 206.627594,207.266998 
	C207.672562,208.009018 207.624390,209.177048 207.612656,210.665131 
z"/>
<path fill="#555454" opacity="1.000000" stroke="none" 
	d="
M220.826248,268.398712 
	C222.278152,267.960419 223.436508,268.522308 223.955750,270.518982 
	C222.612640,270.664825 221.919205,269.507324 220.826248,268.398712 
z"/>
<path fill="#F4F4ED" opacity="1.000000" stroke="none" 
	d="
M120.273254,265.037598 
	C120.607597,265.743286 120.659172,266.519592 120.580330,267.666748 
	C118.704590,267.310822 118.493736,266.343384 120.273254,265.037598 
z"/>
<path fill="#545354" opacity="1.000000" stroke="none" 
	d="
M210.289490,235.736633 
	C209.932220,236.021942 209.665863,236.012238 209.199493,236.002441 
	C208.423706,235.315186 208.262955,234.545792 208.761688,233.346588 
	C208.995285,233.003677 209.283127,232.728134 209.443481,232.608429 
	C209.862732,233.472198 210.121613,234.455704 210.289490,235.736633 
z"/>
<path fill="#545354" opacity="1.000000" stroke="none" 
	d="
M208.319824,216.720245 
	C206.863129,216.403549 206.767410,215.481918 207.715912,214.184326 
	C208.112350,214.826859 208.283371,215.631348 208.319824,216.720245 
z"/>
<path fill="#E6E4E4" opacity="1.000000" stroke="none" 
	d="
M208.562698,517.663147 
	C208.626129,518.446899 208.475525,519.001587 208.324905,519.556335 
	C207.963745,519.350586 207.383224,519.219604 207.282761,518.924988 
	C206.987717,518.059631 207.280380,517.421387 208.562698,517.663147 
z"/>
<path fill="#F1F1E8" opacity="1.000000" stroke="none" 
	d="
M128.301422,172.005066 
	C128.560593,172.795654 128.480011,173.696701 128.217209,174.803253 
	C126.857727,174.073563 126.793106,173.110153 128.301422,172.005066 
z"/>
<path fill="#545354" opacity="1.000000" stroke="none" 
	d="
M123.466537,94.295868 
	C124.912231,94.291702 125.043266,95.357025 124.940338,96.884491 
	C124.430618,96.349518 123.945702,95.474724 123.466537,94.295868 
z"/>
<path fill="#FCFCF4" opacity="1.000000" stroke="none" 
	d="
M111.393356,52.040352 
	C111.710739,52.441051 111.767761,52.892708 111.739159,53.677700 
	C110.352829,53.676762 109.588303,53.197105 111.393356,52.040352 
z"/>
<path fill="#626262" opacity="1.000000" stroke="none" 
	d="
M189.328506,310.666199 
	C189.158447,309.619598 189.460617,308.722748 190.926193,309.871704 
	C190.593643,310.259064 190.142090,310.440430 189.328506,310.666199 
z"/>
<path fill="#545354" opacity="1.000000" stroke="none" 
	d="
M129.887009,154.180695 
	C130.697861,154.403473 131.030319,154.910934 130.289124,155.823181 
	C129.971451,155.434494 129.869263,154.896576 129.887009,154.180695 
z"/>
<path fill="#626262" opacity="1.000000" stroke="none" 
	d="
M193.896088,305.448303 
	C193.456848,306.870056 192.792480,307.208221 192.039612,305.391022 
	C192.555847,305.140625 193.122452,305.192627 193.896088,305.448303 
z"/>
<path fill="#D8D8D4" opacity="1.000000" stroke="none" 
	d="
M140.928757,269.115540 
	C141.525375,269.409454 141.865555,269.858765 142.206635,270.604889 
	C141.289886,270.740234 139.911118,271.012817 140.928757,269.115540 
z"/>
<path fill="#545354" opacity="1.000000" stroke="none" 
	d="
M127.796539,110.347290 
	C128.848099,110.290840 130.803879,110.118973 128.464401,111.948952 
	C128.033600,111.563957 127.896049,111.127525 127.796539,110.347290 
z"/>
<path fill="#F1F1E8" opacity="1.000000" stroke="none" 
	d="
M126.548767,169.470032 
	C126.580627,169.524323 126.516914,169.415741 126.548767,169.470032 
z"/>
<path fill="#FCFCF8" opacity="1.000000" stroke="none" 
	d="
M126.802246,78.341049 
	C125.891327,76.598610 125.183800,75.189934 124.430862,73.434982 
	C125.158752,71.745995 127.608749,71.714500 127.321930,69.621376 
	C127.012459,67.363029 124.660881,68.332047 123.192917,67.224403 
	C122.169685,63.306503 121.405548,59.605438 120.630447,55.490471 
	C124.116394,53.882019 127.479691,55.738747 131.019028,55.656200 
	C134.686859,55.570652 138.495239,55.920238 142.594543,55.909443 
	C143.256104,56.242626 143.576782,56.454784 144.162827,56.787521 
	C144.591324,56.766190 144.754486,56.624283 145.190308,56.664265 
	C145.590820,57.026302 145.718719,57.206448 145.997986,57.683685 
	C147.009735,60.380966 148.717575,62.187271 150.567810,64.307144 
	C151.608673,66.635254 152.664459,68.570435 154.102814,70.667358 
	C154.643478,71.482651 154.973175,72.041946 155.205017,72.983704 
	C165.154160,92.659760 175.086884,112.013275 185.202469,131.690933 
	C185.795792,133.801941 186.206238,135.588821 186.794479,137.688095 
	C187.338318,138.364487 187.510803,138.808380 187.369995,139.662811 
	C188.779709,152.903366 191.217239,165.637070 194.569000,178.613190 
	C194.850632,179.433746 194.919205,179.879761 194.972717,180.668121 
	C194.935333,181.454132 194.888336,181.901581 194.943268,182.674240 
	C195.573868,183.671387 195.792114,184.419266 195.428589,185.635345 
	C200.000656,206.578369 200.628220,227.700592 203.905655,249.538620 
	C198.640366,245.868454 193.387177,244.140747 187.941940,242.957291 
	C186.220200,242.583099 185.700989,241.533859 185.474350,239.789612 
	C183.912567,227.770401 178.162582,217.895691 169.506165,209.621811 
	C168.332214,208.499741 166.819168,207.170135 165.350235,207.016571 
	C159.047455,206.357681 158.507782,202.722153 159.127914,197.398285 
	C159.819839,191.458344 155.801590,186.417480 154.818375,180.665176 
	C151.713196,162.498077 147.302429,144.604660 142.668396,126.366821 
	C142.140366,125.242516 142.005859,124.438560 142.024506,123.298309 
	C142.082672,122.539810 142.138947,122.089394 142.065552,121.320251 
	C140.323715,118.737305 139.570190,116.290916 140.521896,113.163300 
	C140.412231,109.567337 136.030487,109.031685 135.774826,105.326859 
	C135.370499,104.588379 135.199677,104.153297 135.032562,103.352066 
	C133.324387,94.567162 129.913391,86.703583 126.802246,78.341049 
z"/>
<path fill="#FCFCF9" opacity="1.000000" stroke="none" 
	d="
M94.514130,235.151642 
	C94.791389,229.864761 95.359772,224.856476 96.084244,219.430939 
	C97.889084,217.641632 98.385506,215.709579 98.673599,213.735870 
	C99.333038,209.218201 102.188019,206.866119 106.449158,206.989044 
	C112.899429,207.175125 118.869888,206.082214 124.512230,202.869629 
	C126.538315,201.716019 129.006821,201.932266 131.709991,201.832077 
	C138.339386,203.811035 142.568604,209.316422 148.790604,211.455032 
	C150.665665,212.099518 152.433380,213.003052 154.444778,213.258972 
	C165.638641,214.683273 170.368134,222.907028 174.050201,232.116394 
	C175.019028,234.539566 174.475220,236.324097 171.240372,236.197556 
	C168.934769,236.107346 166.453201,236.855255 164.337418,236.240509 
	C157.228409,234.174988 150.155426,236.026077 143.188187,236.477310 
	C137.967545,236.815445 132.127258,238.316147 128.205353,242.367508 
	C125.236298,245.434586 123.414581,244.300583 121.282944,242.040756 
	C118.379990,238.963226 114.874840,236.849823 111.105705,235.021042 
	C106.650497,232.859360 102.292160,232.247192 97.502396,235.068344 
	C96.387268,235.497925 95.625122,235.707520 94.514130,235.151642 
z"/>
<path fill="#F7F7F0" opacity="1.000000" stroke="none" 
	d="
M147.029541,258.977722 
	C147.001572,257.345825 146.916443,256.179626 146.964752,255.019028 
	C147.076965,252.323425 144.630936,248.407288 146.724457,247.281906 
	C149.975342,245.534332 154.174118,244.792084 158.240479,245.774704 
	C160.654755,246.358109 163.162094,247.080963 165.590561,246.965073 
	C169.842010,246.762192 170.814178,247.807449 168.251953,251.468933 
	C164.194489,257.267120 164.482910,263.606934 166.221222,270.073212 
	C166.564957,271.351837 167.109268,272.615784 167.208328,273.913422 
	C167.488419,277.582275 165.572510,278.817596 162.315277,277.166901 
	C160.845230,276.421906 159.494965,275.168030 157.953354,274.881134 
	C148.146408,273.055969 146.621323,267.818237 147.029541,258.977722 
z"/>
<path fill="#F1F1E8" opacity="1.000000" stroke="none" 
	d="
M138.612823,153.295654 
	C138.875671,152.257721 138.965439,151.517883 139.064667,150.405136 
	C139.582184,149.668015 140.122528,149.612106 140.707321,150.295593 
	C143.778473,163.547256 144.591675,176.874512 149.270844,189.314056 
	C150.914169,193.682831 149.095230,198.717194 152.176086,203.131073 
	C147.420135,201.269989 142.883987,198.458267 139.227585,194.725006 
	C135.826050,191.251953 135.694183,186.372131 136.383926,181.773071 
	C136.892792,178.379990 138.058609,175.085419 138.863571,171.367828 
	C137.829834,169.695007 137.662216,168.290054 138.428528,166.399536 
	C138.740128,163.908951 138.832520,161.804291 138.828430,159.326477 
	C137.849915,158.759293 137.494339,158.216492 138.227539,157.226151 
	C138.867310,156.962646 138.936340,156.803467 138.955139,156.388931 
	C138.243530,155.379700 138.018372,154.545929 138.612823,153.295654 
z"/>
<path fill="#F7F8EF" opacity="1.000000" stroke="none" 
	d="
M131.861755,201.492676 
	C124.097580,203.429764 117.413490,209.471481 108.401016,208.172791 
	C104.170547,207.563187 99.696175,208.639694 99.735603,214.902191 
	C99.744537,216.320663 99.562386,218.767624 96.610504,218.998566 
	C96.955345,207.638092 104.109016,201.067230 113.637840,196.813522 
	C117.585197,195.051376 121.650391,197.885941 125.578499,198.998840 
	C127.639359,199.582718 129.613953,200.471054 131.861755,201.492676 
z"/>
<path fill="#545354" opacity="1.000000" stroke="none" 
	d="
M140.381256,112.908546 
	C141.855240,115.148994 141.750793,117.720741 141.989258,120.610992 
	C136.928802,123.262497 137.888184,127.704956 138.470337,131.616074 
	C139.001495,135.184677 138.912781,137.055893 134.608276,135.560730 
	C133.089020,135.033020 132.773987,133.187180 133.242508,130.630280 
	C134.202240,125.392601 136.832504,120.226730 134.404785,114.728111 
	C134.054764,113.935318 133.882736,113.003906 134.705002,112.536118 
	C135.125275,112.297020 135.983276,112.567940 136.520157,112.846191 
	C137.709091,113.462372 138.780396,114.961563 140.381256,112.908546 
z"/>
<path fill="#E6E4E4" opacity="1.000000" stroke="none" 
	d="
M160.718353,330.806274 
	C162.654053,340.136963 163.035538,349.284546 161.723404,358.504547 
	C157.927490,349.929993 156.451447,341.160797 159.394241,331.583923 
	C159.689697,330.760864 160.029495,330.573273 160.718353,330.806274 
z"/>
<path fill="#545354" opacity="1.000000" stroke="none" 
	d="
M140.795441,150.310516 
	C140.362808,150.552963 140.005920,150.377106 139.361603,150.116730 
	C137.268326,149.538986 136.343750,150.935089 135.071411,151.904602 
	C136.102707,149.802109 132.730591,146.359833 136.922089,145.536224 
	C139.973709,144.936600 141.492172,146.676453 140.795441,150.310516 
z"/>
<path fill="#494849" opacity="1.000000" stroke="none" 
	d="
M138.296783,166.013168 
	C138.743988,167.397552 138.840225,168.781494 138.865952,170.577057 
	C134.677841,170.512695 134.060089,167.628860 134.005020,163.362930 
	C135.285812,165.131042 136.232224,166.396271 138.296783,166.013168 
z"/>
<path fill="#D8D8D4" opacity="1.000000" stroke="none" 
	d="
M139.341354,250.517822 
	C138.838745,250.885391 138.344940,250.894592 137.481354,250.914886 
	C136.425995,251.587143 135.624176,251.767975 134.360748,251.255112 
	C135.405762,248.307465 136.962967,246.608490 139.341354,250.517822 
z"/>
<path fill="#E6E4E4" opacity="1.000000" stroke="none" 
	d="
M157.047974,324.395325 
	C157.522873,324.009949 157.955826,323.975098 158.714233,323.958008 
	C159.191437,324.781921 159.028427,325.711792 160.076187,326.504425 
	C160.483551,327.546326 160.562103,328.287018 159.572723,328.904297 
	C157.971283,327.751709 156.735367,326.647552 157.047974,324.395325 
z"/>
<path fill="#FEFEFE" opacity="1.000000" stroke="none" 
	d="
M133.816010,251.215347 
	C134.780701,250.979202 135.555099,250.954117 136.720520,250.927521 
	C136.868729,252.967682 135.403702,253.063324 133.456223,253.001190 
	C133.263214,252.485977 133.444458,251.956192 133.816010,251.215347 
z"/>
<path fill="#545354" opacity="1.000000" stroke="none" 
	d="
M187.577118,140.003220 
	C187.105118,139.564072 186.987625,139.123322 186.921204,138.341537 
	C188.135712,138.304672 190.030701,137.266449 190.307312,139.045242 
	C190.494537,140.249191 188.826996,139.837585 187.577118,140.003220 
z"/>
<path fill="#B5B4B2" opacity="1.000000" stroke="none" 
	d="
M159.170013,329.259155 
	C159.474915,328.364655 159.762405,327.862976 160.139023,327.072388 
	C161.219711,327.785400 161.030304,329.056763 160.988495,330.656982 
	C160.622665,331.053741 160.298294,331.099213 159.731079,331.171021 
	C159.374466,330.668854 159.263535,330.160400 159.170013,329.259155 
z"/>
<path fill="#545354" opacity="1.000000" stroke="none" 
	d="
M128.306061,94.524460 
	C127.411194,94.897064 126.760681,94.887329 126.511528,94.110687 
	C126.444389,93.901413 126.693504,93.393700 126.895149,93.329407 
	C127.751930,93.056259 128.534805,93.076904 128.306061,94.524460 
z"/>
<path fill="#B5B4B2" opacity="1.000000" stroke="none" 
	d="
M94.077560,235.185272 
	C94.950989,234.933289 95.678970,234.993530 96.770248,235.104034 
	C96.310143,236.107910 95.812485,237.550125 94.215126,237.338348 
	C94.042465,237.315445 94.022766,236.138885 94.077560,235.185272 
z"/>
<path fill="#545354" opacity="1.000000" stroke="none" 
	d="
M191.381226,148.244446 
	C191.202393,147.380783 190.980927,146.607300 191.265198,146.144501 
	C191.652878,145.513306 192.052917,146.169846 192.191528,146.547455 
	C192.472229,147.312164 193.518463,148.410904 191.381226,148.244446 
z"/>
<path fill="#545354" opacity="1.000000" stroke="none" 
	d="
M138.439285,153.083282 
	C138.886353,153.839157 138.986786,154.680771 138.996078,155.827972 
	C137.057327,155.577423 136.250137,154.736206 138.439285,153.083282 
z"/>
<path fill="#545354" opacity="1.000000" stroke="none" 
	d="
M195.570526,185.935944 
	C195.130707,185.252304 195.004349,184.501419 194.961609,183.375000 
	C197.088654,183.440216 197.785767,184.274582 195.570526,185.935944 
z"/>
<path fill="#545354" opacity="1.000000" stroke="none" 
	d="
M141.781555,123.160240 
	C142.210709,123.791664 142.395035,124.593094 142.525208,125.702194 
	C140.932617,125.544479 140.708969,124.620667 141.781555,123.160240 
z"/>
<path fill="#545354" opacity="1.000000" stroke="none" 
	d="
M208.221085,235.657593 
	C207.790939,236.365143 207.824280,237.676468 207.200256,236.667511 
	C206.743195,235.928497 207.351212,234.530716 207.741699,233.213287 
	C208.596375,233.685715 208.473221,234.509323 208.221085,235.657593 
z"/>
<path fill="#545354" opacity="1.000000" stroke="none" 
	d="
M204.922379,214.478729 
	C204.847290,215.177536 204.727753,215.613052 204.608215,216.048553 
	C203.654160,215.586334 204.084137,214.822723 204.212234,214.139252 
	C204.231903,214.034302 204.452133,213.873886 204.539062,213.896317 
	C204.670700,213.930283 204.766754,214.102158 204.922379,214.478729 
z"/>
<path fill="#545354" opacity="1.000000" stroke="none" 
	d="
M192.395538,141.954544 
	C192.798157,141.213135 193.204956,141.207001 193.565521,141.732513 
	C193.641159,141.842743 193.639206,142.098419 193.561218,142.206177 
	C193.187515,142.722473 192.780869,142.703247 192.395538,141.954544 
z"/>
<path fill="#494849" opacity="1.000000" stroke="none" 
	d="
M138.401581,157.091705 
	C138.835068,157.533005 138.871872,157.944168 138.820312,158.654327 
	C137.921326,158.816132 136.717590,159.293549 136.648575,157.907272 
	C136.610794,157.148697 137.425903,157.155746 138.401581,157.091705 
z"/>
<path fill="#545354" opacity="1.000000" stroke="none" 
	d="
M195.194244,180.884354 
	C194.834106,180.500397 194.685883,179.994110 194.647522,179.239685 
	C195.655029,179.332001 196.206528,179.799316 195.194244,180.884354 
z"/>
<path fill="#545354" opacity="1.000000" stroke="none" 
	d="
M134.773788,103.147141 
	C135.202805,103.489769 135.413605,103.976486 135.601929,104.735947 
	C134.664520,104.778191 133.840668,104.493378 134.773788,103.147141 
z"/>
<path fill="#494849" opacity="1.000000" stroke="none" 
	d="
M208.249954,236.000000 
	C208.000061,235.249893 208.000031,234.499954 207.999451,233.375015 
	C207.998901,233.000031 208.498260,232.999588 208.746765,233.001633 
	C208.996658,233.752441 208.998047,234.501205 208.999481,235.624924 
	C208.999542,235.999878 208.499817,236.000137 208.249954,236.000000 
z"/>
<path fill="#494849" opacity="1.000000" stroke="none" 
	d="
M58.909393,280.788086 
	C58.163845,281.803864 58.117752,281.074280 57.993248,280.232483 
	C58.251102,280.187653 58.522438,280.376282 58.909393,280.788086 
z"/>
<path fill="#545354" opacity="1.000000" stroke="none" 
	d="
M133.012695,160.755524 
	C132.903030,160.589600 132.956848,160.422165 133.010681,160.254745 
	C133.065842,160.421173 133.121002,160.587585 133.012695,160.755524 
z"/>
<path fill="#545354" opacity="1.000000" stroke="none" 
	d="
M191.753845,127.988731 
	C191.589417,128.097580 191.423553,128.044159 191.257690,127.990753 
	C191.422592,127.935997 191.587494,127.881233 191.753845,127.988731 
z"/>
<path fill="#545354" opacity="1.000000" stroke="none" 
	d="
M135.449997,161.532166 
	C135.417038,161.476791 135.482956,161.587524 135.449997,161.532166 
z"/>
<path fill="#545354" opacity="1.000000" stroke="none" 
	d="
M128.467682,90.449966 
	C128.522644,90.417145 128.412704,90.482780 128.467682,90.449966 
z"/>
<path fill="#494849" opacity="1.000000" stroke="none" 
	d="
M206.533234,225.551727 
	C206.477295,225.585449 206.589157,225.517990 206.533234,225.551727 
z"/>
<path fill="#626262" opacity="1.000000" stroke="none" 
	d="
M152.521423,203.228729 
	C152.699905,203.398834 152.660812,203.701416 152.660812,203.701416 
	C152.660812,203.701416 152.301895,203.699768 152.254089,203.616104 
	C152.206268,203.532440 152.342941,203.058624 152.521423,203.228729 
z"/>
<path fill="#F7F6F1" opacity="1.000000" stroke="none" 
	d="
M179.268509,103.198013 
	C173.634354,94.727715 170.720154,85.305565 166.338715,76.209061 
	C165.584061,75.617081 165.245544,75.154015 165.114807,74.252472 
	C164.852158,71.514648 163.478668,69.527153 162.136688,67.229385 
	C161.172562,66.118866 160.198151,65.478119 159.253632,64.324226 
	C157.089874,61.086403 154.424347,58.454620 154.698395,54.186092 
	C155.266617,53.599155 155.951202,53.290127 156.205566,53.567898 
	C159.862015,57.560783 161.862015,54.620571 164.662857,52.132816 
	C167.266800,49.819958 169.546295,46.879604 173.378998,45.682629 
	C175.334534,48.770298 175.580887,52.170486 175.629456,55.443817 
	C175.825104,68.632278 178.294586,81.579323 179.477386,94.658554 
	C179.701965,97.141960 179.889145,99.628754 180.107437,102.562096 
	C179.932037,103.134193 179.742798,103.258171 179.268509,103.198013 
z"/>
<path fill="#F7F7E9" opacity="1.000000" stroke="none" 
	d="
M173.722107,45.313271 
	C173.106110,45.932846 172.085388,45.984879 171.937683,46.370911 
	C169.918472,51.648762 163.810745,52.823620 161.032410,57.370575 
	C159.885422,59.247711 158.672897,58.411900 157.838135,56.715500 
	C157.285553,55.592506 156.919342,54.154476 154.587189,54.338852 
	C148.384583,49.231037 149.316254,43.819099 153.173462,37.959141 
	C155.796829,33.973660 157.860977,29.955044 163.843918,31.392138 
	C168.314468,32.465961 172.083450,36.581505 173.194122,42.466282 
	C173.348099,43.282089 173.545822,44.089638 173.722107,45.313271 
z"/>
<path fill="#F5F5E8" opacity="1.000000" stroke="none" 
	d="
M142.865051,55.697685 
	C135.637512,58.226120 128.444016,58.054276 120.996796,55.078163 
	C118.951134,50.083466 122.267387,47.335510 125.824425,45.729103 
	C129.445145,44.093933 133.755707,43.959854 136.857193,47.384418 
	C139.072601,49.830616 140.831879,52.689926 142.865051,55.697685 
z"/>
<path fill="#59585A" opacity="1.000000" stroke="none" 
	d="
M153.906708,54.792904 
	C153.966019,54.492546 154.218536,54.369694 154.351257,54.324142 
	C156.254486,57.300774 158.025009,60.322964 159.742279,64.043823 
	C156.853302,68.214157 153.687515,67.445488 150.107361,65.226288 
	C147.711594,62.862545 146.055527,60.441422 144.648529,57.437260 
	C144.852112,56.960285 145.347549,56.895603 145.329636,56.594704 
	C145.290512,55.937771 145.629501,56.601318 144.728455,56.775150 
	C144.492447,56.902245 144.461426,56.877052 144.444794,56.892574 
	C146.035248,54.008007 147.542938,51.260204 150.603546,55.834682 
	C151.767624,57.574554 153.077042,56.750454 153.906708,54.792904 
z"/>
<path fill="#F1F1E8" opacity="1.000000" stroke="none" 
	d="
M122.907928,67.369431 
	C124.727287,67.629105 126.632103,65.168365 128.358490,67.172066 
	C130.211578,69.322815 128.593460,72.392029 124.834915,73.068680 
	C123.884308,71.302910 123.383163,69.517097 122.907928,67.369431 
z"/>
<path fill="#59585A" opacity="1.000000" stroke="none" 
	d="
M159.950653,64.051498 
	C160.950912,64.550346 161.548447,65.365936 161.829498,66.740318 
	C159.724930,66.827713 160.345917,69.644882 158.098816,69.707558 
	C156.543945,67.299789 158.520218,66.220940 159.591354,64.451797 
	C159.815384,64.193512 159.905563,64.098846 159.950653,64.051498 
z"/>
<path fill="#59585A" opacity="1.000000" stroke="none" 
	d="
M155.628082,73.212692 
	C154.866928,73.013023 154.512421,72.719803 154.132538,72.191772 
	C154.547592,70.268784 155.578369,69.385353 157.686966,69.773750 
	C157.992340,69.992577 157.999237,69.999252 158.003387,70.003433 
	C157.995178,71.453903 157.822861,72.798752 155.628082,73.212692 
z"/>
<path fill="#59585A" opacity="1.000000" stroke="none" 
	d="
M164.867081,74.123573 
	C165.425949,74.432381 165.737808,74.908073 166.068344,75.675674 
	C165.155304,75.795792 163.827606,75.970345 164.867081,74.123573 
z"/>
<path fill="#B5B4B2" opacity="1.000000" stroke="none" 
	d="
M178.996613,103.321838 
	C179.172958,102.987625 179.362442,102.961380 179.836609,102.972672 
	C180.791061,103.343239 181.093430,104.108795 180.640381,104.491974 
	C179.710556,105.278404 179.374634,104.285889 178.996613,103.321838 
z"/>
<path fill="#59585A" opacity="1.000000" stroke="none" 
	d="
M165.399689,86.724197 
	C165.559113,86.850815 165.582016,87.069847 165.604904,87.288879 
	C165.490997,87.131462 165.377090,86.974045 165.399689,86.724197 
z"/>
<path fill="#525150" opacity="1.000000" stroke="none" 
	d="
M184.988617,114.008545 
	C184.860764,113.866798 184.744156,113.715973 184.627548,113.565155 
	C184.716904,113.611801 184.806274,113.658455 184.956757,113.840958 
	C185.017899,113.976807 184.999878,113.999481 184.988617,114.008545 
z"/>
<path fill="#545354" opacity="1.000000" stroke="none" 
	d="
M158.000214,69.634430 
	C156.566925,69.918228 155.676270,70.904564 154.389801,71.811676 
	C151.922882,70.394363 151.303604,67.789841 149.859818,65.337639 
	C152.911179,64.878990 156.273407,67.628075 159.468353,64.202110 
	C160.131958,66.214539 157.605530,67.224670 158.000214,69.634430 
z"/>
<path fill="#545354" opacity="1.000000" stroke="none" 
	d="
M144.509460,56.949173 
	C144.668900,56.867657 144.874878,55.930466 144.790329,57.004250 
	C144.562790,57.089077 144.526459,56.996098 144.509460,56.949173 
z"/>
</svg>