<svg version="1.1" id="Layer_1" xmlns="http://www.w3.org/2000/svg" xmlns:xlink="http://www.w3.org/1999/xlink" x="0px" y="0px"
	 width="100%" viewBox="0 0 388 422" enable-background="new 0 0 388 422" xml:space="preserve">
<path fill="none" opacity="1.000000" stroke="#000000" stroke-linecap="round" stroke-linejoin="round" stroke-width="9.000000"
	d="
M93.500000,131.500000 
	C94.529053,137.205536 91.957832,142.471252 91.315094,147.978424 
	C90.429733,155.564545 89.918236,162.992096 91.462845,170.507629 
	C91.725769,171.786926 91.536659,173.167831 91.494492,174.499832 
	C90.900055,193.277313 92.479233,211.930618 95.099640,230.485931 
	C95.869034,235.934082 96.051346,241.659317 99.449890,246.534927 
	C101.479782,249.446991 101.932701,253.193405 101.852066,256.496399 
	C101.602150,266.733002 104.433365,276.303528 106.958145,286.010895 
	C110.458084,299.467560 113.427589,313.065125 117.080856,326.477966 
	C119.681274,336.025330 120.619400,345.785156 122.297119,355.448425 
	C123.672157,363.368256 126.115334,372.033844 130.887253,378.200317 
	C137.043396,386.155548 146.645142,390.619507 156.986526,392.571411 
	C161.163864,393.359833 165.303329,393.583984 169.499832,393.492249 
	C175.918594,393.351990 179.032455,390.397583 179.484283,383.998901 
	C179.617142,382.117340 179.529205,380.203461 182.000000,379.750000 
"/>
<path fill="none" opacity="1.000000" stroke="#000000" stroke-linecap="round" stroke-linejoin="round" stroke-width="9.000000"
	d="
M298.500000,128.000000 
	C293.655609,133.174301 294.979156,139.728928 295.709198,145.473419 
	C297.655853,160.790970 296.511963,176.191208 297.898407,191.509201 
	C298.913879,202.728210 295.880707,213.788559 295.376434,224.994446 
	C295.007690,233.189514 293.502197,241.333603 292.498688,249.499832 
	C292.195312,251.968658 293.833191,253.833374 294.500000,256.000000 
"/>
<path fill="none" opacity="1.000000" stroke="#000000" stroke-linecap="round" stroke-linejoin="round" stroke-width="9.000000"
	d="
M212.750000,123.500000 
	C214.448563,125.041992 213.144241,127.176369 213.886032,129.045242 
	C215.295563,132.596466 216.193558,136.188629 218.296188,139.624710 
	C221.331650,144.585175 221.113739,150.784561 221.413239,156.504547 
	C222.459396,176.484756 224.226105,196.540970 222.688080,216.475937 
	C221.780014,228.245682 225.566360,238.858948 227.225250,249.966354 
	C227.883514,254.374054 227.776642,258.666199 227.956207,263.001801 
	C228.426895,274.365967 230.976562,285.561981 230.532837,297.001282 
	C230.324478,302.372467 229.260803,307.818695 229.402237,312.988983 
	C229.545746,318.234802 229.113464,323.766418 230.552414,328.985535 
	C231.019806,330.680817 231.309036,332.422546 230.929611,333.982880 
	C229.448135,340.075409 231.531342,346.000092 231.738556,351.991760 
	C231.932770,357.607788 231.536606,362.552979 228.000000,367.000000 
"/>
<path fill="none" opacity="1.000000" stroke="#000000" stroke-linecap="round" stroke-linejoin="round" stroke-width="9.000000"
	d="
M96.000000,242.500000 
	C92.860695,243.159760 90.541786,245.257751 87.975716,246.963470 
	C86.049240,248.244034 83.984177,249.076706 81.487839,248.028976 
	C67.305946,242.076813 56.679165,231.651215 51.399670,217.847137 
	C46.003578,203.738235 45.146587,188.304688 46.962246,172.995529 
	C48.096806,163.429184 51.245224,154.758926 56.971687,146.979156 
	C59.835148,143.088974 60.241673,138.013977 62.921276,133.948120 
	C63.948948,132.388809 64.492935,130.918335 66.406532,129.834915 
	C68.660202,128.558945 70.566277,126.397720 72.022919,124.014000 
	C74.509628,119.944595 78.051712,116.657341 80.850372,112.888878 
	C85.880394,106.115837 90.481636,98.917534 94.378159,91.436546 
	C99.255959,82.071609 106.872566,75.805260 115.573372,70.623192 
	C117.613976,69.407829 120.341713,69.154907 123.057213,70.911552 
	C130.799728,75.920158 135.813614,73.512169 140.951324,69.438622 
	C143.886902,67.111099 146.353485,64.186470 148.995697,61.495777 
	C154.098129,56.299683 159.759323,51.919178 166.481201,48.957340 
	C168.121353,48.234642 169.651031,47.548428 171.498413,47.464912 
	C176.669647,47.231144 181.763840,48.279457 187.021408,47.691418 
	C191.436127,47.197651 195.278275,50.290260 197.876907,53.596741 
	C201.323135,57.981670 206.010651,57.868427 209.938919,56.779610 
	C218.200562,54.489704 226.945251,55.623817 235.026337,52.569691 
	C236.338867,52.073647 238.164459,52.072044 239.471451,52.574306 
	C245.037399,54.713207 250.355865,53.452602 255.466690,51.416401 
	C259.492523,49.812473 263.070374,49.902695 265.944519,53.050655 
	C269.930908,57.416824 275.870361,59.765896 278.512482,65.494240 
	C283.134399,75.514885 288.078003,85.396400 292.378143,95.551605 
	C294.070312,99.547897 295.040833,104.002174 294.992249,108.499916 
	C294.969116,110.642448 295.113373,112.598930 296.402161,114.564163 
	C297.393280,116.075432 297.935150,118.172203 297.911926,119.998878 
	C297.859070,124.160126 299.325348,127.008789 302.321869,130.168900 
	C307.935608,136.089050 311.727600,143.552261 314.873901,151.052902 
	C318.514679,159.732468 323.962006,167.619965 326.034332,176.992401 
	C328.048737,186.102829 327.876190,195.230850 327.637207,204.503540 
	C327.085632,225.903305 315.657013,241.435181 299.690216,253.075073 
	C291.069092,259.359955 290.946075,266.890045 290.110748,275.011383 
	C288.930237,286.488739 287.511444,297.944519 286.848419,309.491302 
	C286.390900,317.459290 283.608002,325.184326 281.707855,332.928314 
	C280.186005,339.130646 280.520630,345.410034 279.026398,351.506470 
	C277.542389,357.561127 277.418152,363.936279 274.056305,369.533813 
	C271.919525,373.091675 269.657898,375.550049 264.989929,375.105743 
	C262.140808,374.834564 259.449371,376.799774 257.611664,378.613159 
	C252.866638,383.295258 247.170395,382.617218 241.501266,382.455780 
	C239.160339,382.389130 236.833328,381.833344 234.500000,381.500000 
"/>
<path fill="none" opacity="1.000000" stroke="#000000" stroke-linecap="round" stroke-linejoin="round" stroke-width="9.000000"
	d="
M148.500000,126.500000 
	C148.842606,132.789352 151.556946,138.506409 153.187195,144.448639 
	C156.045441,154.866959 157.754135,165.484451 159.934753,176.013504 
	C162.662262,189.183090 163.902985,202.522049 164.795853,215.980377 
	C165.506149,226.686768 164.869583,237.345383 165.547592,247.996964 
	C165.776199,251.588623 163.891693,254.590530 163.294525,257.963623 
	C162.276276,263.715302 162.521805,269.297791 162.932907,275.004822 
	C163.147049,277.977386 162.665970,280.999969 162.500153,284.000000 
	C162.032486,292.460632 163.104385,300.584808 166.410828,308.537079 
	C170.171036,317.580688 170.856323,327.311737 170.931152,337.000519 
	C170.971817,342.266632 173.375763,346.919342 174.023254,351.997040 
	C174.577637,356.344696 175.869553,360.667053 175.866425,364.999908 
	C175.862366,370.615723 177.616333,375.415100 180.500000,380.000000 
"/>
<path fill="none" opacity="1.000000" stroke="#000000" stroke-linecap="round" stroke-linejoin="round" stroke-width="8.000000"
	d="
M134.500000,352.500000 
	C139.704208,354.377289 144.899338,356.080292 150.506622,354.017975 
	C154.756760,352.454803 156.575546,354.808929 158.078049,358.467957 
	C160.083298,363.351318 161.858170,368.339294 162.347137,373.514435 
	C162.720566,377.466736 163.880249,380.681244 166.500000,383.500000 
"/>
<path fill="none" opacity="1.000000" stroke="#000000" stroke-linecap="round" stroke-linejoin="round" stroke-width="8.000000"
	d="
M179.500000,389.500000 
	C184.069855,397.378784 191.932693,399.890808 200.005219,401.979828 
	C205.584900,403.423737 211.004196,405.728363 217.005203,405.045715 
	C219.067551,404.811157 221.062149,404.645905 222.489761,402.991180 
	C227.816513,396.817047 232.832672,389.932312 233.572708,381.960327 
	C234.029770,377.036591 231.512756,370.722015 227.274429,367.277557 
	C224.744690,365.221710 223.094604,362.838257 221.630585,360.420929 
	C218.412201,355.106781 213.211334,352.771881 206.981857,354.431946 
	C204.761780,355.023560 202.334061,354.964020 199.999878,354.977203 
	C190.354630,355.031647 188.605545,356.915466 189.500000,366.500000 
"/>
<path fill="none" opacity="1.000000" stroke="#000000" stroke-linecap="round" stroke-linejoin="round" stroke-width="8.000000"
	d="
M267.500000,362.750000 
	C266.778748,363.103455 265.487671,363.160156 265.597900,362.516785 
	C266.239990,358.769989 263.906158,355.395660 264.851624,351.464325 
	C266.100403,346.272064 262.124268,342.618378 257.040894,344.136932 
	C254.345474,344.942169 251.602371,344.657074 249.000000,345.500000 
"/>
<path fill="none" opacity="1.000000" stroke="#000000" stroke-linecap="round" stroke-linejoin="round" stroke-width="6.000000"
	d="
M225.500000,367.500000 
	C221.670227,370.422455 220.664825,375.097443 218.579346,379.041962 
	C212.687805,390.185272 206.917786,392.206787 197.000000,387.000000 
"/>
<path fill="none" opacity="1.000000" stroke="#000000" stroke-linecap="round" stroke-linejoin="round" stroke-width="8.000000"
	d="
M65.500000,218.500000 
	C66.107536,222.316254 67.076714,226.004242 71.509209,226.957169 
	C75.790840,227.877670 79.932701,228.255310 83.590813,224.590652 
	C85.511299,222.666718 83.685555,220.117401 85.500000,218.500000 
"/>
<path fill="none" opacity="1.000000" stroke="#000000" stroke-linecap="round" stroke-linejoin="round" stroke-width="7.000000"
	d="
M163.000000,380.000000 
	C159.075241,381.972595 155.228378,384.155182 150.932999,380.580505 
	C150.243729,380.006866 148.666672,380.500000 147.500000,380.500000 
"/>
<path fill="none" opacity="1.000000" stroke="#000000" stroke-linecap="round" stroke-linejoin="round" stroke-width="3.000000"
	d="
M241.000000,346.500000 
	C238.000000,343.993500 235.000000,347.217468 232.000000,346.500000 
"/>
<path fill="none" opacity="1.000000" stroke="#000000" stroke-linecap="round" stroke-linejoin="round" stroke-width="5.000000"
	d="
M245.000000,374.500000 
	C249.155304,373.183319 252.686218,374.613953 256.000000,377.000000 
"/>
</svg>