<svg version="1.1" id="Layer_1" xmlns="http://www.w3.org/2000/svg" xmlns:xlink="http://www.w3.org/1999/xlink" x="0px" y="0px"
	 width="100%" viewBox="0 0 432 480" enable-background="new 0 0 432 480" xml:space="preserve">
<path fill="#000000" opacity="1.000000" stroke="none" 
	d="
M355.434082,335.482544 
	C358.347748,349.631714 362.156677,362.948944 369.315765,375.240692 
	C371.358643,378.748169 371.393829,383.524994 371.929077,387.772766 
	C372.246765,390.294037 369.952942,390.843964 367.951752,391.413605 
	C364.933075,392.272888 362.336334,391.343048 361.178650,388.699677 
	C352.888947,369.771088 348.507690,349.787201 345.722595,329.411865 
	C344.844757,322.989624 347.730499,317.323669 350.158356,311.754272 
	C353.140656,304.912933 355.139771,298.016266 354.764832,290.510193 
	C354.573517,286.679688 354.953156,282.908325 355.534241,279.092621 
	C356.689850,271.504089 356.755554,264.085327 354.018280,256.494293 
	C351.515961,249.554977 352.678436,241.632706 349.175842,234.706482 
	C342.303741,221.117264 338.850494,206.309479 334.476776,191.849518 
	C333.291534,187.930923 332.444977,183.561951 332.891968,179.561584 
	C334.342804,166.577179 331.384094,154.143555 329.345764,141.541977 
	C327.754456,131.703751 324.104523,122.705887 319.668488,113.896950 
	C316.612701,107.828819 310.752899,104.655701 306.143433,100.203011 
	C304.880920,98.983444 302.812531,98.112770 301.042114,98.547913 
	C296.427216,99.682190 292.132874,97.634804 287.747833,97.591179 
	C276.068085,97.474960 265.422699,92.665337 254.115753,90.845108 
	C246.562805,89.629196 239.835327,84.433090 231.726456,84.601608 
	C226.105637,84.718437 220.589951,82.605804 214.872940,84.113205 
	C212.640671,84.701790 211.425400,85.640396 210.819702,87.845528 
	C209.163422,93.875374 205.934860,99.085289 202.208679,104.054497 
	C197.695602,110.073112 196.006271,117.294685 194.420792,124.409065 
	C192.541519,132.841751 188.669479,140.130936 184.301376,147.525269 
	C175.962097,161.642014 166.899063,175.718536 165.601624,192.737106 
	C164.488541,207.337402 168.274139,221.090225 174.263596,234.276398 
	C174.943634,235.773575 175.913162,237.132156 176.295227,238.785049 
	C176.672440,240.416855 178.159256,241.399506 179.165695,240.155991 
	C183.095139,235.300995 189.395859,234.773880 194.111023,231.449951 
	C194.619049,231.091797 194.965973,230.505112 195.522400,229.870804 
	C193.332214,227.005783 191.007324,224.403366 189.189255,221.485184 
	C186.345245,216.920303 183.252441,214.004883 177.412720,216.780960 
	C174.448334,218.190170 171.823822,217.210403 170.646225,213.822037 
	C169.310822,209.979614 171.658005,208.226425 174.722885,207.102112 
	C182.975357,204.074768 190.632660,207.306366 196.166000,216.098984 
	C197.495102,218.210953 198.559921,220.614685 201.096268,221.515152 
	C205.568298,223.102798 208.478424,221.118851 208.925247,216.301834 
	C209.022522,215.253052 209.261414,214.280014 210.156006,213.696091 
	C222.159729,205.861282 220.709320,193.849838 219.113602,182.377167 
	C218.410599,177.322800 218.438324,172.512100 218.817093,167.573776 
	C218.956909,165.750641 219.120026,163.703323 221.257339,163.061539 
	C223.388489,162.421600 224.622131,163.929855 225.717453,165.488312 
	C226.090790,166.019485 226.554718,166.487030 227.014481,167.027405 
	C229.793457,166.680939 230.972626,164.530914 232.077194,162.588989 
	C238.365189,151.534119 243.926239,140.223831 243.730988,127.020287 
	C243.696716,124.702324 243.634171,121.990013 246.860458,121.684486 
	C249.776398,121.408348 250.728577,123.741959 251.607544,125.987061 
	C253.294403,130.295700 252.507263,134.593216 251.190674,138.718307 
	C249.285522,144.687378 249.925522,150.057571 254.610901,154.303238 
	C259.454651,158.692398 265.287750,158.258026 271.127258,156.581116 
	C272.423828,156.208786 273.808990,155.679367 274.262207,154.327744 
	C275.092255,151.852219 276.268280,149.642593 279.161774,151.214767 
	C281.794495,152.645233 283.169922,155.560287 282.532043,158.433594 
	C281.859741,161.461792 280.434509,164.451355 276.780365,165.334335 
	C266.099884,167.915161 255.952011,168.290817 248.098999,158.688522 
	C247.895691,158.439941 247.592575,158.241974 247.296188,158.109390 
	C247.007782,157.980347 246.668167,157.965836 245.894440,157.807755 
	C243.855133,160.989822 241.075989,164.079758 239.763931,167.701218 
	C238.254364,171.867813 242.274796,174.384476 244.845383,176.565155 
	C248.762634,179.888245 253.350327,182.180862 258.966248,181.831390 
	C262.206879,181.629715 264.821594,181.043076 266.659088,178.202377 
	C267.462616,176.960175 268.378601,175.490982 270.219543,176.256912 
	C271.515930,176.796280 272.140533,178.023865 272.420624,179.405930 
	C273.658966,185.516129 268.243011,190.659515 262.170563,190.692490 
	C251.410461,190.750900 243.226349,186.577942 236.854401,178.182434 
	C235.648315,176.593338 234.066605,175.859604 232.075958,177.177429 
	C229.738174,178.725082 228.012314,180.361969 228.467667,183.636093 
	C229.483307,190.939056 229.262329,198.186951 227.364517,205.415665 
	C226.384094,209.150055 223.257019,211.902740 222.872040,216.127258 
	C223.542389,216.370132 224.143112,216.812378 224.688736,216.752502 
	C237.314987,215.367264 248.033066,220.427078 258.649261,226.339798 
	C267.525208,231.283279 276.996094,234.983154 287.139282,236.360306 
	C293.460907,237.218613 299.341156,235.610947 304.419983,231.528244 
	C307.635071,228.943726 311.087830,227.834305 315.056915,229.907272 
	C317.536194,231.202179 318.882416,233.227783 318.634155,235.952209 
	C318.378754,238.755005 316.141785,239.925369 313.708710,240.046844 
	C310.921783,240.186035 308.568726,241.384720 306.124054,242.363937 
	C287.358826,249.880463 270.513977,243.438232 254.262772,234.767197 
	C241.836975,228.137238 229.388809,224.782578 215.624664,229.897476 
	C212.721619,230.976303 210.328781,232.715469 208.150772,234.746933 
	C204.683121,237.981277 200.642609,240.303635 196.417603,242.246185 
	C183.861862,248.019012 183.217682,253.162994 188.670715,264.930237 
	C193.131088,274.555359 202.168488,279.753052 212.628143,281.830627 
	C217.269592,282.752563 221.345749,284.656372 225.493774,286.931274 
	C235.920425,292.649536 246.293686,298.035095 259.226135,296.142853 
	C266.970062,295.009796 275.083008,297.117767 282.768463,299.251587 
	C286.167084,300.195160 288.496185,300.084808 290.086914,296.596954 
	C290.695892,295.261627 291.705994,294.062653 292.708435,292.960876 
	C299.319794,285.694153 301.055847,276.992645 300.293823,267.543304 
	C300.094757,265.075226 299.491211,262.554840 301.608612,260.403564 
	C305.178314,260.398956 306.323944,263.060150 307.250946,265.745087 
	C311.080322,276.836182 310.269897,287.363770 303.195526,297.062531 
	C302.704742,297.735382 302.247375,298.432495 301.768738,299.114319 
	C296.283661,306.927856 296.261322,306.963409 304.461578,312.025085 
	C306.514282,313.292053 308.354034,314.649231 308.981140,317.086121 
	C309.491211,319.068085 308.640411,320.722382 307.250763,322.022736 
	C305.163177,323.976196 302.751709,323.343903 300.765686,322.063934 
	C295.451721,318.639130 290.207458,315.089539 285.102234,311.361237 
	C277.189453,305.582581 268.087646,305.307648 258.905853,305.400024 
	C249.722076,305.492432 241.115234,304.118317 232.452682,300.279755 
	C225.871307,297.363464 219.797516,293.391083 212.685455,291.317993 
	C197.457092,286.879120 183.859085,279.734467 178.064224,263.381378 
	C176.960663,260.267090 176.411636,256.947723 175.723495,253.698257 
	C175.345139,251.911667 174.436768,250.496979 172.797546,249.933426 
	C170.727173,249.221664 169.681198,251.032776 169.008209,252.416565 
	C166.262604,258.061981 161.534668,260.592499 155.650131,261.693054 
	C151.788452,262.415222 149.909927,264.297791 150.011337,268.893677 
	C150.285217,281.305511 155.140274,292.524780 158.394836,304.141846 
	C159.767654,309.042145 163.739151,312.439056 167.749542,315.574463 
	C178.950394,324.331482 187.421829,334.821899 192.308151,348.636627 
	C197.286179,362.710510 204.383423,376.020233 210.045181,389.872009 
	C213.741806,398.916016 215.131516,408.801147 219.787766,417.572205 
	C221.013809,419.881744 219.554184,421.564667 216.903458,421.211975 
	C213.579819,420.769806 210.550140,420.052795 209.345917,415.953308 
	C204.085648,398.046143 197.563828,380.482239 188.985046,364.003937 
	C182.094315,350.767975 178.951569,335.248657 166.675171,324.942810 
	C163.985397,322.684784 160.918396,321.038330 158.344040,318.682373 
	C151.837265,312.727570 147.959091,305.135101 145.958252,296.808502 
	C143.364746,286.015594 139.653885,275.401611 139.574493,264.093781 
	C139.545685,259.989349 135.806229,258.524536 133.521057,256.002472 
	C129.911194,252.018311 127.169807,250.242737 120.695107,252.723907 
	C111.039093,256.424194 100.577065,254.397812 92.355438,247.109772 
	C88.746918,243.910980 86.166527,243.309616 81.490509,245.511139 
	C69.370270,251.217514 54.549370,247.949005 49.701649,231.137863 
	C44.910332,214.522293 45.556904,198.311981 50.488174,181.652985 
	C52.994484,173.186111 54.951694,164.376495 56.884743,155.655380 
	C59.560993,143.581238 63.404209,131.912064 71.165024,121.978485 
	C73.265907,119.289436 74.270325,116.100693 75.762230,113.139801 
	C79.454842,105.811386 83.877411,99.038269 89.443100,92.956680 
	C93.422913,88.607964 95.584122,82.997475 97.831886,77.714478 
	C101.612022,68.829895 112.615707,60.664238 126.142273,62.849377 
	C133.327744,64.010147 140.744385,64.295700 146.511597,69.702156 
	C147.992981,71.090874 149.333740,69.984467 150.395523,68.874466 
	C151.903137,67.298386 153.992477,66.346054 155.420120,64.885551 
	C167.949097,52.068192 183.989197,57.760071 196.230240,66.468262 
	C197.044235,67.047333 197.878494,67.617897 198.603806,68.298470 
	C203.818375,73.191559 209.103973,74.849152 216.902817,73.563332 
	C226.395081,71.998322 236.343918,74.490669 245.681656,77.747353 
	C259.520142,82.573730 273.878876,85.108917 288.227417,87.812256 
	C294.318695,88.959892 300.518738,87.954597 306.520508,89.585747 
	C310.183319,90.581215 313.490112,92.161797 315.622833,95.321457 
	C317.783997,98.523277 321.733826,99.268120 324.100433,102.178391 
	C329.245941,108.505928 331.682648,116.208511 335.033386,123.416763 
	C340.395844,134.952759 339.935730,147.764832 342.300568,159.965302 
	C343.538849,166.353760 343.796692,172.811432 343.289917,179.322968 
	C342.395203,190.819870 347.514954,201.082306 350.527313,211.699280 
	C356.099091,231.336441 363.934845,250.551422 364.506165,271.158325 
	C364.825623,282.680878 365.337402,294.420288 363.214386,305.967529 
	C362.112457,311.960724 358.540833,316.961823 356.956177,322.768188 
	C355.846222,326.835205 355.042908,330.843842 355.434082,335.482544 
M150.730255,90.931755 
	C145.745178,99.928635 140.049149,108.616196 135.964310,118.004768 
	C131.392227,128.513290 126.973076,139.102264 122.103134,149.474365 
	C112.940895,168.988281 112.737213,188.542053 120.994438,208.320099 
	C121.505699,209.544693 121.923370,211.362808 123.339645,211.253479 
	C127.097115,210.963425 129.424316,213.676483 132.388153,215.009933 
	C136.045120,216.655228 139.484543,217.458588 143.213928,214.878738 
	C146.893005,212.333725 150.410294,213.297897 152.591934,217.063095 
	C156.047882,223.027542 158.152756,229.545471 158.581696,236.454025 
	C158.719879,238.679581 158.579041,241.614044 155.579681,242.031815 
	C152.497101,242.461166 150.134613,240.763733 148.981873,237.811310 
	C148.568604,236.752899 148.621872,235.519119 148.404449,234.376373 
	C146.886765,226.399750 146.657318,226.262100 138.380432,226.119141 
	C136.128174,226.080231 133.882126,225.681168 131.410904,225.424301 
	C131.950806,228.979156 132.303970,232.277100 132.977219,235.508362 
	C133.975143,240.297775 134.540115,245.061981 139.044159,248.600418 
	C141.717148,250.700317 144.714005,249.125107 146.869797,250.739777 
	C150.908081,253.764374 154.301788,251.660721 157.305969,249.482895 
	C162.667679,245.596039 164.711380,236.497803 162.519318,230.000717 
	C158.193451,217.179306 155.423386,204.031662 156.125961,190.431778 
	C157.092545,171.722015 167.456894,156.574326 175.973557,140.870667 
	C179.160461,134.994400 183.064941,129.417709 184.178757,122.846352 
	C186.258438,110.576622 191.961548,100.002937 198.178421,89.563271 
	C201.554932,83.893280 201.138580,82.011497 195.729858,78.021873 
	C194.391129,77.034393 193.167892,75.861519 191.745316,75.021515 
	C185.505417,71.336952 179.374191,65.431992 171.735870,67.869583 
	C162.508942,70.814133 153.111450,74.865982 152.218918,86.961868 
	C152.136597,88.077377 151.477722,89.150345 150.730255,90.931755 
M117.844612,133.437393 
	C119.661171,129.335052 121.877899,125.358803 123.217804,121.106285 
	C126.945686,109.274956 133.692429,98.943832 139.252167,88.034760 
	C142.084976,82.476364 141.066910,78.300674 135.326630,75.743042 
	C130.787781,73.720718 125.878922,73.899628 121.123314,73.472687 
	C115.966843,73.009758 111.973549,75.438477 108.808556,79.663094 
	C105.779938,83.705688 104.590813,88.718567 101.439705,92.637810 
	C90.317543,106.471176 82.459206,122.271980 74.219467,137.839462 
	C73.471764,139.252090 72.129730,140.806274 73.218155,142.479095 
	C75.295540,145.671890 75.349548,149.445251 76.537560,152.885742 
	C80.711647,164.974091 84.820724,177.093338 86.949371,189.752625 
	C87.761856,194.584549 88.219994,199.476059 88.917824,204.954422 
	C92.016670,203.744415 94.330376,204.101669 96.122040,206.349487 
	C97.237419,207.748840 98.683159,207.406799 100.233406,207.039948 
	C103.873711,206.178513 107.369102,206.410492 110.857994,210.195709 
	C109.590195,204.910187 108.917801,200.631042 107.527466,196.599487 
	C103.979729,186.312103 104.888672,176.003799 106.425232,165.544403 
	C108.076912,154.301453 113.195053,144.379608 117.844612,133.437393 
M63.202538,232.276016 
	C64.121620,233.774170 65.538765,234.608215 67.135269,235.178192 
	C72.950050,237.254181 81.373871,232.862427 80.313293,228.022034 
	C77.072136,213.229797 79.205902,197.967804 75.814842,183.148483 
	C73.976807,175.116013 71.032867,167.711655 67.902885,159.390778 
	C63.585537,168.595703 63.389473,177.759430 60.302330,186.172409 
	C54.640011,201.603149 56.325626,216.793793 63.202538,232.276016 
M118.375832,225.151184 
	C116.881554,222.614304 115.387276,220.077438 113.470062,216.822540 
	C113.158920,220.077820 114.273346,222.149170 115.160149,224.187973 
	C116.576614,227.444427 117.537697,230.749237 117.306190,234.321793 
	C117.161385,236.556427 117.901306,239.441544 114.882088,240.181808 
	C112.227791,240.832581 110.635147,238.582413 109.388184,236.678635 
	C108.317978,235.044662 107.455902,233.126556 107.077065,231.219788 
	C106.387199,227.747604 104.749451,224.651749 103.683762,221.339493 
	C103.321030,220.212082 102.852684,218.790314 101.512352,218.960083 
	C97.524002,219.465225 94.187477,217.408020 90.441566,216.177170 
	C90.269081,217.131485 90.076653,217.762787 90.051216,218.400742 
	C89.513397,231.886597 96.275696,239.548141 111.346466,242.552948 
	C117.019821,243.684097 122.357292,238.559357 121.219704,232.830017 
	C120.741684,230.422470 119.562775,228.154083 118.375832,225.151184 
z"/>
<path fill="#000000" opacity="1.000000" stroke="none" 
	d="
M274.125702,355.644379 
	C278.511627,355.993103 281.518951,357.691193 281.134857,362.076782 
	C280.764374,366.307220 277.165802,365.893951 273.964447,366.445190 
	C259.832672,368.878296 247.292114,363.075623 234.135925,359.777130 
	C222.821289,356.940277 213.311523,351.458649 204.114929,344.827637 
	C199.825897,341.735107 196.587738,338.196167 194.956253,332.871613 
	C191.788864,322.534485 185.555420,313.422852 182.393845,303.045013 
	C181.378143,299.710938 180.396713,296.340790 179.786652,292.918152 
	C179.401688,290.758484 179.923279,288.172546 182.217087,287.425171 
	C184.858124,286.564636 185.367813,289.337494 186.106247,291.023163 
	C191.836166,304.103333 199.166595,316.451996 203.916122,329.981018 
	C204.237289,330.895905 204.697769,332.004730 205.441559,332.491272 
	C214.141556,338.182770 221.854034,345.556183 232.457047,348.015930 
	C237.139603,349.102203 241.882462,350.306213 246.268265,352.214508 
	C255.150513,356.079193 264.434540,355.554871 274.125702,355.644379 
z"/>
<path fill="#000000" opacity="1.000000" stroke="none" 
	d="
M194.556091,249.934860 
	C195.325516,248.390274 195.995224,247.232773 196.494644,246.005951 
	C197.178757,244.325455 198.073792,242.912720 200.143555,243.471497 
	C202.086655,243.996048 202.546524,245.651871 202.418381,247.434998 
	C202.299881,249.084152 202.109100,250.741882 201.773392,252.359131 
	C200.705917,257.501495 204.094803,261.317413 209.302155,260.179779 
	C213.474503,259.268250 216.735001,260.482941 220.085190,262.650879 
	C222.679245,264.329498 225.612213,266.398407 228.744461,264.344299 
	C231.021652,262.850922 232.252335,260.380371 231.327286,257.357727 
	C230.209122,253.704056 228.871597,250.734924 224.199509,250.210968 
	C220.476471,249.793472 216.726944,248.473007 213.297821,246.886353 
	C209.692749,245.218262 208.741211,241.641769 209.503876,237.962830 
	C210.149780,234.847107 213.578674,233.694183 216.184631,235.879745 
	C220.012558,239.090195 224.518631,239.898026 229.140518,240.533615 
	C233.156265,241.085831 236.365479,242.743744 238.559982,246.268250 
	C245.664917,257.679169 244.447418,266.684448 234.809967,275.036407 
	C232.414642,277.112213 229.954498,277.800842 226.999649,276.864471 
	C219.861877,274.602539 212.731125,272.318542 205.596069,270.048065 
	C200.772446,268.513092 197.534744,264.727173 194.299820,261.298279 
	C191.263107,258.079468 194.387680,253.999649 194.556091,249.934860 
z"/>
<path fill="#000000" opacity="1.000000" stroke="none" 
	d="
M278.046814,212.739960 
	C276.174438,206.814056 272.708527,202.041672 270.552704,196.661667 
	C269.569916,194.209015 268.868683,191.503998 272.021973,190.331009 
	C275.072479,189.196243 276.097595,191.751373 277.471527,194.002686 
	C281.652283,200.853210 283.898071,208.539780 287.321014,215.706512 
	C287.906708,216.932861 288.600891,218.242096 287.494934,219.389282 
	C286.099396,220.836853 284.765198,219.686737 283.504974,218.923462 
	C281.160187,217.503311 279.581909,215.384979 278.046814,212.739960 
z"/>
</svg>