<svg version="1.1" id="Layer_1" xmlns="http://www.w3.org/2000/svg" xmlns:xlink="http://www.w3.org/1999/xlink" x="0px" y="0px"
	 width="100%" viewBox="0 0 392 510" enable-background="new 0 0 392 510" xml:space="preserve">
<path fill="none" opacity="1.000000" stroke="#000000" stroke-linecap="round" stroke-linejoin="round" stroke-width="9.000000"
	d="
M215.500000,255.500000 
	C218.333328,254.450760 220.959656,254.202179 224.038116,255.402237 
	C234.006210,259.288055 249.657837,248.380234 248.303284,236.465515 
	C246.607819,221.551926 244.942932,206.572998 244.322739,191.507294 
	C243.971176,182.966888 242.368683,174.366699 240.298004,166.050293 
	C239.067673,161.108994 236.424896,156.232925 233.383667,152.085297 
	C225.749756,141.674133 220.826263,130.507446 219.222610,117.534286 
	C218.620667,112.664734 217.320557,108.455711 221.008575,104.508003 
	C222.026459,103.418434 221.268738,102.159248 221.494690,100.998970 
	C224.089020,87.677094 229.487503,76.256660 242.502075,70.004303 
	C245.339676,68.641075 248.333481,67.980446 251.499924,67.972069 
	C253.000351,67.968094 254.630157,67.989670 255.978378,67.446350 
	C263.414185,64.449799 269.880707,67.976463 270.390350,76.006958 
	C270.779510,82.138718 270.970276,88.351112 270.039154,94.505920 
	C269.919647,95.295967 270.088928,96.338959 270.536713,96.974113 
	C277.105804,106.292061 281.050232,117.091301 288.259644,126.190445 
	C295.013184,134.714218 297.861664,145.108093 298.787170,156.476624 
	C300.743225,180.503403 299.285095,204.505936 300.097107,228.496719 
	C300.255798,233.186218 301.467346,237.882584 302.602295,242.474716 
	C303.030640,244.207962 303.434570,246.135162 302.889008,247.454086 
	C298.355133,258.414642 295.300201,269.979767 288.622406,280.080933 
	C285.113922,285.388092 283.222626,291.707336 280.667267,297.572876 
	C276.995575,306.000732 271.606293,313.368591 267.380585,321.437469 
	C262.143555,331.437469 255.043213,340.309143 248.498398,349.498871 
	C247.768478,350.523743 246.621460,350.644623 245.529922,351.075745 
	C238.305420,353.929291 230.729660,356.268402 224.126923,360.212463 
	C217.929260,363.914551 211.812744,362.816071 205.500000,362.750000 
"/>
<path fill="none" opacity="1.000000" stroke="#000000" stroke-linecap="round" stroke-linejoin="round" stroke-width="9.000000"
	d="
M207.500000,234.000000 
	C200.943832,228.260040 197.858200,220.403610 195.720001,212.440918 
	C194.318130,207.220383 191.868149,202.413086 190.692078,197.067749 
	C189.877792,193.366730 189.675491,189.545288 189.306717,185.968384 
	C188.456116,177.718140 185.838913,169.844467 185.275513,161.515182 
	C184.721008,153.317001 180.253998,145.922180 176.670410,138.662704 
	C175.089172,135.459473 170.685791,133.340744 166.054489,132.265350 
	C152.870407,129.203995 141.608704,134.348846 130.613205,139.731262 
	C124.652290,142.649185 124.352570,149.983109 123.024078,156.005310 
	C122.848778,156.799973 123.357277,157.970184 122.946091,158.454193 
	C117.313316,165.084564 123.014290,170.189423 124.869026,176.041504 
	C128.775726,188.368057 135.825851,199.400391 139.032654,211.991684 
	C144.167526,232.153351 153.595856,250.624420 161.927200,269.532074 
	C163.821442,273.830963 163.881485,278.925171 167.503479,282.496460 
	C168.533630,283.512207 169.401321,284.771484 171.000000,285.000000 
"/>
<path fill="none" opacity="1.000000" stroke="#000000" stroke-linecap="round" stroke-linejoin="round" stroke-width="11.000000"
	d="
M72.000000,188.000000 
	C64.197647,188.792786 57.925343,193.102997 51.514072,197.023010 
	C45.025169,200.990524 43.404934,207.301697 42.321041,214.472946 
	C40.536354,226.280807 39.713768,238.180496 38.780518,250.022110 
	C38.147102,258.059235 38.313972,266.272919 40.171806,274.573456 
	C42.495857,284.956970 46.179195,294.832947 48.883785,305.030823 
	C49.935547,308.996582 52.841492,311.554688 54.624325,314.934418 
	C61.600422,328.159027 69.648109,340.778564 77.295631,353.621704 
	C83.419701,363.906311 89.932930,373.786835 97.566338,382.944702 
	C98.734924,384.346649 98.426880,385.628906 98.477814,387.000824 
	C98.699585,392.974487 99.468796,398.824463 101.479729,404.507172 
	C106.685326,419.217529 110.433830,434.395111 115.862419,449.050964 
	C117.552322,453.613312 118.782166,458.429260 120.608383,462.956268 
	C121.878410,466.104492 121.584763,469.385651 122.500000,472.500000 
"/>
<path fill="none" opacity="1.000000" stroke="#000000" stroke-linecap="round" stroke-linejoin="round" stroke-width="8.000000"
	d="
M119.500000,164.000000 
	C114.940071,163.269684 110.766380,161.341736 106.028008,160.768494 
	C93.813385,159.290756 85.710533,165.124542 79.077477,174.057526 
	C76.373390,177.699219 75.080246,182.213226 73.352219,186.439575 
	C72.721802,187.981461 72.947693,189.037872 73.547592,189.969345 
	C82.703789,204.186279 89.313400,219.764862 97.408409,234.550156 
	C104.253380,247.052292 110.259552,260.031281 114.917953,273.528320 
	C117.526695,281.086731 122.506088,287.420624 125.049706,294.983276 
	C127.486176,302.227356 130.333328,309.333344 133.000000,316.500000 
"/>
<path fill="none" opacity="1.000000" stroke="#000000" stroke-linecap="round" stroke-linejoin="round" stroke-width="8.000000"
	d="
M51.500000,247.750000 
	C60.912163,256.419525 68.022842,266.904846 75.012909,277.491486 
	C76.591820,279.882751 78.207428,282.269989 80.022354,284.481659 
	C86.926140,292.894775 90.638351,303.261505 96.994308,312.004150 
	C100.078049,316.245758 102.854065,320.130920 108.924583,321.369598 
	C112.672127,322.134247 115.948242,325.502808 120.497803,325.601410 
	C124.848976,325.695770 127.916588,324.619141 130.165466,320.592407 
	C130.914291,319.251556 131.137253,316.368622 134.000000,316.750000 
"/>
<path fill="none" opacity="1.000000" stroke="#000000" stroke-linecap="round" stroke-linejoin="round" stroke-width="9.000000"
	d="
M238.500000,242.500000 
	C236.863632,242.803024 236.586288,242.097122 236.426025,240.507462 
	C235.970230,235.986206 235.269165,231.481766 234.473129,227.004776 
	C233.553940,221.835342 229.922775,218.840103 224.500000,218.499985 
	C219.695435,218.198654 215.889175,220.752060 213.994888,225.497955 
	C212.675476,228.803574 212.312286,232.416718 208.099304,234.230637 
	C205.979691,235.143280 206.660110,238.655396 207.529541,240.988998 
	C209.146332,245.328537 210.794647,249.665283 213.494659,253.503754 
	C222.925476,266.911133 219.616776,291.269684 206.394073,300.345673 
	C199.071335,305.371948 190.315552,306.384399 181.506287,303.976990 
	C179.009583,303.294647 176.594315,302.251984 174.000000,303.500000 
"/>
<path fill="none" opacity="1.000000" stroke="#000000" stroke-linecap="round" stroke-linejoin="round" stroke-width="10.000000"
	d="
M173.000000,284.500000 
	C177.926300,285.894165 181.538391,289.958008 186.973862,290.693268 
	C190.940811,291.229919 194.748932,290.663910 198.477615,290.281647 
	C202.463303,289.873016 204.498581,283.667450 202.973175,278.507935 
	C201.986679,275.171173 200.325195,272.107788 199.874573,268.515747 
	C199.486847,265.425049 196.801361,264.126831 194.047104,265.588745 
	C190.049057,267.710815 185.916550,268.440399 181.500732,268.534332 
	C177.841492,268.612122 175.074539,271.432281 175.021698,275.000336 
	C174.962204,279.020142 173.673355,282.254120 171.188477,285.638397 
	C168.254822,289.633820 170.035721,294.706848 171.634842,298.949158 
	C173.154129,302.979645 173.064850,306.951416 172.965164,310.999146 
	C172.819153,316.927521 168.905609,321.113312 163.000320,322.002106 
	C159.744614,322.492157 156.496841,322.838806 153.478256,324.459503 
	C148.757919,326.993988 144.527267,324.714874 140.540421,322.429504 
	C138.638779,321.339386 137.166672,319.500000 135.500000,318.000000 
"/>
<path fill="none" opacity="1.000000" stroke="#000000" stroke-linecap="round" stroke-linejoin="round" stroke-width="10.000000"
	d="
M248.000000,351.000000 
	C253.066055,358.214752 252.388779,367.001099 254.331589,375.040710 
	C255.998871,381.940247 257.437653,388.853912 259.940765,395.522247 
	C260.509735,397.037903 260.333344,398.833344 260.500000,400.500000 
"/>
<path fill="none" opacity="1.000000" stroke="#000000" stroke-linecap="round" stroke-linejoin="round" stroke-width="9.000000"
	d="
M217.000000,110.500000 
	C201.968582,108.237877 187.607803,108.337952 175.923035,120.425598 
	C172.512375,123.953857 172.173111,128.586548 170.000000,132.500000 
"/>
<path fill="none" opacity="1.000000" stroke="#000000" stroke-linecap="round" stroke-linejoin="round" stroke-width="9.000000"
	d="
M194.500000,382.500000 
	C191.389053,382.389435 188.779053,383.118805 185.881744,384.795654 
	C181.274460,387.462067 175.600342,387.790497 170.429077,389.248413 
	C167.437607,390.091797 164.380478,390.888397 161.525116,392.061157 
	C153.791824,395.237335 148.643356,392.845886 147.000000,385.000000 
"/>
<path fill="none" opacity="1.000000" stroke="#000000" stroke-linecap="round" stroke-linejoin="round" stroke-width="8.000000"
	d="
M254.000000,68.500000 
	C255.892105,73.667900 254.800613,79.316406 256.525848,84.491386 
	C257.894440,88.596573 260.105774,92.276535 263.014557,95.486816 
	C265.014191,97.693733 267.629425,96.427376 270.000000,96.500000 
"/>
<path fill="none" opacity="1.000000" stroke="#000000" stroke-linecap="round" stroke-linejoin="round" stroke-width="9.000000"
	d="
M133.000000,305.500000 
	C135.679428,304.112396 136.588120,301.265564 137.902832,298.944946 
	C140.875992,293.697052 145.633698,293.594910 150.491867,294.081238 
	C154.415344,294.473999 158.133255,295.106323 159.244781,300.449066 
	C159.823303,303.229797 161.082779,306.150696 161.920685,309.023132 
	C162.441803,310.809601 163.020996,312.665833 161.110123,314.608337 
	C159.274094,316.474701 160.047256,319.461853 160.000000,322.000000 
"/>
<path fill="none" opacity="1.000000" stroke="#000000" stroke-linecap="round" stroke-linejoin="round" stroke-width="8.000000"
	d="
M119.000000,386.000000 
	C112.401611,384.650574 105.902199,382.311310 99.000000,384.000000 
"/>
<path fill="none" opacity="1.000000" stroke="#000000" stroke-linecap="round" stroke-linejoin="round" stroke-width="8.000000"
	d="
M129.000000,308.000000 
	C127.166664,307.500000 125.135971,307.346161 123.537262,306.434662 
	C118.864044,303.770172 114.959229,306.674377 111.067024,308.173981 
	C109.147964,308.913330 108.309364,311.504547 109.469711,314.014008 
	C110.517998,316.281067 109.902100,318.666656 109.500000,321.000000 
"/>
<path fill="none" opacity="1.000000" stroke="#000000" stroke-linecap="round" stroke-linejoin="round" stroke-width="10.000000"
	d="
M164.500000,371.500000 
	C164.896011,374.508118 163.955032,376.323456 161.085648,378.135620 
	C152.795776,383.371094 144.274567,386.264282 134.511414,383.460297 
	C133.509827,383.172638 132.666656,382.333344 131.749985,381.750000 
"/>
<path fill="none" opacity="1.000000" stroke="#000000" stroke-linecap="round" stroke-linejoin="round" stroke-width="6.000000"
	d="
M236.500000,243.000000 
	C232.525665,245.555664 228.421188,247.547394 223.500000,246.000000 
"/>
<path fill="none" opacity="1.000000" stroke="#000000" stroke-linecap="round" stroke-linejoin="round" stroke-width="3.000000"
	d="
M122.500000,466.500000 
	C124.948204,466.463928 126.920677,468.647949 129.500000,468.000000 
"/>
<path fill="none" opacity="1.000000" stroke="#000000" stroke-linecap="round" stroke-linejoin="round" stroke-width="5.000000"
	d="
M212.000000,232.500000 
	C215.123917,235.601013 218.739578,238.411469 218.500000,243.500000 
"/>
<path fill="none" opacity="1.000000" stroke="#000000" stroke-linecap="round" stroke-linejoin="round" stroke-width="2.000000"
	d="
M70.500000,197.500000 
	C69.574463,196.014191 67.774376,195.927658 66.500000,195.000000 
"/>
</svg>