<svg version="1.1" id="Layer_1" xmlns="http://www.w3.org/2000/svg" xmlns:xlink="http://www.w3.org/1999/xlink" x="0px" y="0px"
	 width="100%" viewBox="0 0 432 480" enable-background="new 0 0 432 480" xml:space="preserve">
<path fill="#000000" opacity="1.000000" stroke="none" 
	d="
M200.688629,79.069839 
	C213.141602,87.244560 227.099442,91.663460 239.508331,99.095657 
	C242.318634,100.778877 244.080933,103.126526 245.975754,105.748642 
	C253.788544,116.560089 255.878143,129.650314 260.654724,141.636810 
	C266.078156,155.246582 272.676910,168.304504 278.348511,181.795410 
	C285.693451,199.266800 289.491058,217.621216 293.911224,235.830200 
	C296.972565,248.441422 296.948669,261.527710 298.318787,274.401093 
	C299.129547,282.018921 302.795319,288.953674 304.168152,296.513428 
	C307.553345,315.154755 314.421936,332.585358 325.073303,348.196503 
	C329.481384,354.657166 334.764771,360.813660 340.916748,365.903320 
	C343.677063,368.186951 345.108887,370.820770 345.641937,374.314453 
	C345.958557,376.389557 346.697540,378.189331 344.302338,379.456421 
	C342.133698,380.603607 340.107056,380.563934 338.343353,378.804565 
	C335.514740,375.982910 332.760101,373.086670 329.996155,370.200867 
	C329.422546,369.601959 329.025940,368.819550 328.411377,368.275909 
	C315.450470,356.811493 308.684753,341.275421 302.207703,325.981628 
	C298.412994,317.021667 296.532867,306.985016 293.765717,297.529510 
	C288.810730,280.597839 287.345245,263.322723 284.710815,246.123474 
	C280.995392,221.866440 274.698914,198.326553 264.169006,176.018143 
	C258.353577,163.697693 252.471756,151.372559 247.491974,138.706635 
	C244.290924,130.564865 242.825745,121.775757 237.691467,114.355186 
	C235.002106,110.468254 232.386307,106.702827 227.791000,104.858116 
	C217.156494,100.589111 206.994965,95.407623 197.225601,89.395035 
	C192.259460,86.338608 187.564575,87.562103 182.170959,89.878510 
	C166.096893,96.781837 154.931885,109.013893 144.304321,122.107170 
	C141.481613,125.584763 138.335297,128.804306 135.265793,132.074982 
	C133.782578,133.655411 130.603210,134.370453 131.980713,137.400101 
	C133.386017,140.490860 136.783493,141.775604 139.535828,141.273621 
	C151.003830,139.181976 162.900970,137.840927 171.437744,128.344421 
	C173.671356,125.859688 176.052979,123.570824 176.673309,120.044952 
	C177.122635,117.490967 178.727600,115.908661 181.411606,115.669678 
	C183.858536,115.451797 185.927704,115.932686 187.506409,118.168381 
	C193.697083,126.935333 202.734650,131.207764 212.803513,133.607224 
	C215.179764,134.173492 217.257294,134.836472 218.747681,136.840652 
	C220.021103,138.553070 220.612625,140.330582 219.645737,142.423340 
	C218.694397,144.482391 217.119431,145.232712 214.892349,145.390030 
	C208.812500,145.819504 208.245865,146.589706 209.415863,152.667465 
	C210.316528,157.346069 212.298004,161.429688 215.980026,164.691010 
	C218.604141,167.015289 221.204697,169.657181 219.936859,173.711349 
	C219.291641,175.774536 217.623718,177.070068 215.442749,177.133026 
	C211.506485,177.246643 209.387604,174.749985 207.116302,171.776367 
	C200.719849,163.402039 197.623291,154.086395 197.548340,143.642365 
	C197.536758,142.027344 196.674820,140.836472 195.275375,140.002762 
	C192.131485,138.129852 188.912964,136.360672 185.904251,134.288727 
	C183.163330,132.401184 181.587479,134.190399 179.880463,135.766113 
	C178.134750,137.377533 176.237839,139.090973 178.070923,141.721344 
	C182.930145,148.694046 186.148270,157.327911 196.015427,159.268951 
	C197.827652,159.625443 199.019943,161.303528 200.054291,162.846069 
	C201.155807,164.488754 201.466858,166.191757 200.348053,167.990692 
	C199.290634,169.690857 197.625778,170.024399 195.975937,169.523895 
	C188.941803,167.389908 182.307175,164.460907 177.305496,158.799164 
	C175.989746,157.309769 174.992386,155.542694 173.807632,153.933426 
	C167.629425,145.541443 167.318893,145.504898 157.696472,149.464722 
	C155.368164,150.422867 155.163300,151.722458 156.161789,153.741516 
	C158.754730,158.984680 161.200562,164.315231 167.244537,166.607773 
	C168.145584,166.949539 169.064835,167.564285 169.669891,168.303146 
	C171.251724,170.234741 171.900803,172.419464 170.474670,174.754547 
	C169.151215,176.921585 167.107590,176.553162 165.122559,176.084839 
	C155.535751,173.823044 150.874084,166.315964 146.503693,158.517776 
	C145.049316,155.922684 144.022919,153.091858 140.068344,153.285706 
	C136.558334,153.457748 135.352234,154.617874 137.044327,157.875229 
	C138.729401,161.119034 140.629807,164.228180 141.921036,167.695068 
	C147.597000,182.934875 150.334061,199.119690 156.972977,214.051346 
	C161.472992,224.172409 164.411652,235.048248 172.130768,243.556473 
	C175.068344,246.794342 175.299194,249.994980 169.777191,251.381531 
	C172.729263,258.021698 175.949203,264.016663 178.076019,270.471313 
	C178.613586,272.102692 179.988266,272.671387 181.640854,272.645905 
	C190.273315,272.512756 198.890793,273.257233 207.541565,272.001282 
	C217.738770,270.520813 225.956223,275.883392 233.618332,281.457520 
	C238.003052,284.647369 242.704956,286.211761 247.699982,287.401001 
	C250.487549,288.064697 253.262146,287.920502 255.706818,285.832916 
	C257.217682,284.542755 259.119598,283.747223 261.210602,283.727173 
	C263.725952,283.703064 265.936829,284.435486 266.879211,286.960510 
	C267.861969,289.593750 266.476166,291.243500 264.287781,292.724823 
	C254.669617,299.235352 240.591568,299.518616 230.312347,291.051697 
	C218.055176,280.955566 204.627747,281.724304 190.600754,283.514496 
	C188.090408,283.834900 187.139862,285.245300 188.236053,287.740936 
	C188.838028,289.111420 189.321594,290.533752 189.861679,291.931519 
	C193.676422,301.803802 192.520538,305.844696 183.634277,311.983429 
	C186.528061,313.393951 189.074036,314.789764 191.737701,315.904266 
	C199.716309,319.242584 206.392517,325.091400 214.781311,327.680084 
	C217.101501,328.396057 219.177155,328.746216 221.567413,328.171722 
	C227.882080,326.653992 233.319107,328.293823 239.043213,331.603821 
	C247.067429,336.243835 256.131165,338.841400 265.490692,339.404053 
	C270.722961,339.718628 273.401886,341.099640 273.129486,344.966187 
	C272.786530,349.834137 268.863953,350.570526 265.445587,349.885498 
	C259.356720,348.665344 252.960938,348.766907 247.226639,345.757629 
	C237.740784,340.779572 226.773438,341.818451 215.918167,338.032745 
	C218.467636,343.810028 220.293396,349.070160 222.990845,353.837036 
	C229.542786,365.415436 233.720367,377.770172 236.176743,390.766235 
	C236.743805,393.766357 237.331772,397.002777 233.161087,398.003967 
	C229.913254,398.783630 225.595413,395.800995 224.854050,392.348328 
	C224.121262,388.935699 223.547653,385.489197 222.878220,382.062622 
	C221.557434,375.301788 218.979279,369.026886 215.389343,363.173096 
	C211.369980,356.619110 209.137985,349.257050 205.860016,342.368225 
	C200.567993,331.246765 190.542648,326.698395 179.619003,323.501373 
	C177.675171,322.932465 175.867416,322.403931 174.187515,321.227509 
	C168.413422,317.183929 163.955673,311.705505 159.004288,306.833832 
	C154.495499,302.397644 153.513336,296.326904 156.737915,290.207581 
	C158.364700,287.120453 159.769867,283.917328 161.350784,280.805023 
	C164.118423,275.356415 163.745667,269.772919 161.344955,264.499146 
	C159.172470,259.726807 157.978378,254.760269 156.988235,249.714066 
	C155.683411,243.064270 152.171890,237.415833 149.478134,231.355133 
	C145.370728,222.113907 142.044479,212.457642 139.197205,202.740082 
	C134.939606,188.209076 128.119476,174.626389 123.999352,160.071442 
	C122.831306,155.945129 119.704773,157.135696 117.041733,157.675262 
	C110.734032,158.953308 104.468620,160.477310 98.524384,163.002594 
	C93.536133,165.121750 88.347549,164.657791 83.258453,164.157959 
	C77.140823,163.557114 73.661278,159.172012 72.907822,151.423904 
	C72.641556,148.685745 71.959862,146.294861 70.683823,143.891693 
	C68.190842,139.196701 70.440689,132.995468 75.244949,130.526306 
	C76.557175,129.851883 77.994461,129.138046 78.929955,128.057541 
	C87.358994,118.321983 97.171066,110.119057 106.997879,101.871292 
	C110.751495,98.720840 113.496590,94.332657 116.541412,90.385216 
	C119.007576,87.187973 121.922623,84.549583 125.065689,82.032669 
	C133.934372,74.930756 143.640442,77.181633 152.615128,80.529594 
	C162.500168,84.217178 171.161118,84.530418 180.213593,78.556496 
	C186.642944,74.313606 193.663742,76.196083 200.688629,79.069839 
M151.357300,93.503510 
	C147.153366,89.135643 138.748108,87.817261 133.805969,90.595108 
	C125.098305,95.489418 119.618744,103.971321 116.274506,112.219887 
	C112.452988,121.645668 109.579338,131.539001 104.991524,140.767471 
	C103.148903,144.473938 105.149132,147.109543 109.368645,146.570862 
	C112.413605,146.182114 115.363304,145.047226 118.816628,144.121506 
	C117.533989,139.918503 116.975525,136.704758 119.243484,132.552383 
	C123.053772,125.576187 129.963058,121.763779 134.090393,115.357948 
	C139.035980,107.682121 146.826996,102.285561 151.357300,93.503510 
M86.145302,145.862167 
	C88.439247,146.553467 89.848892,145.378723 91.209297,143.700012 
	C94.485985,139.656647 95.012543,134.346375 97.694588,130.007858 
	C98.874664,128.098953 100.380875,126.022240 99.920975,123.415009 
	C92.310776,127.268677 89.135307,135.702057 81.677925,139.327225 
	C82.594215,142.015778 84.058800,143.795563 86.145302,145.862167 
M173.897247,299.917542 
	C178.151459,302.544891 181.562256,302.334839 181.382629,299.458252 
	C181.127640,295.375305 180.115479,291.199066 175.927994,288.177917 
	C173.909683,292.093384 172.171066,295.360687 173.897247,299.917542 
z"/>
<path fill="#000000" opacity="1.000000" stroke="none" 
	d="
M222.866730,235.170776 
	C209.251038,228.202744 207.284973,214.984482 204.183334,202.457672 
	C203.547882,199.891220 203.327118,197.280350 202.060989,194.832092 
	C201.161423,193.092636 200.738953,190.856003 203.058228,189.564484 
	C205.457748,188.228302 207.685928,188.965179 209.345352,190.881271 
	C211.124039,192.935059 211.734726,195.546509 212.227509,198.214111 
	C213.128860,203.093521 214.270889,207.895279 215.675385,212.695312 
	C218.596573,222.678787 226.422256,227.111282 234.702850,231.020401 
	C242.254929,234.585602 245.352188,240.035599 243.191132,247.873672 
	C242.455612,250.541351 240.388641,251.586075 237.904572,251.552094 
	C234.637878,251.507416 231.781784,250.106995 231.241409,246.672455 
	C230.415192,241.421173 227.657669,237.852097 222.866730,235.170776 
z"/>
</svg>